<?xml version="1.0" encoding="UTF-8"?>
<svg version="1.1" xmlns="http://www.w3.org/2000/svg" width="95" height="90">
<path d="M0 0 C0.75925781 -0.01417969 1.51851562 -0.02835937 2.30078125 -0.04296875 C5.06975602 0.22441179 7.1252224 1.11826428 9.6875 2.1875 C11.63963714 2.6715449 13.5985425 3.12889899 15.5625 3.5625 C25.29227133 6.01278471 28.99010981 9.01370193 34.6953125 17.3828125 C36.50305894 19.92783592 38.39695634 22.07507108 40.5625 24.3125 C44.08878955 28.25743579 45.38265137 31.92193271 45.6875 37.1875 C45.49202779 39.88401402 45.07651839 42.50759551 44.6875 45.1875 C44.89375 46.30125 45.1 47.415 45.3125 48.5625 C46.08028539 55.98442548 43.07873096 62.33252539 38.6875 68.1875 C38.15898438 68.99445313 37.63046875 69.80140625 37.0859375 70.6328125 C33.77835407 75.63061477 31.06019376 79.27729088 25.6875 82.1875 C24.47861111 82.89488477 23.27029174 83.60324358 22.0625 84.3125 C20.94875 84.93125 19.835 85.55 18.6875 86.1875 C18.06101563 86.54328125 17.43453125 86.8990625 16.7890625 87.265625 C8.7862002 90.77617426 -4.96400361 90.71550923 -13.0625 87.6875 C-14.135 87.1925 -15.2075 86.6975 -16.3125 86.1875 C-16.3125 85.5275 -16.3125 84.8675 -16.3125 84.1875 C-19.2825 83.8575 -22.2525 83.5275 -25.3125 83.1875 C-25.3125 82.5275 -25.3125 81.8675 -25.3125 81.1875 C-26.3025 81.1875 -27.2925 81.1875 -28.3125 81.1875 C-29.6640625 79.76171875 -29.6640625 79.76171875 -30.9375 77.875 C-31.36289062 77.26011719 -31.78828125 76.64523438 -32.2265625 76.01171875 C-33.3125 74.1875 -33.3125 74.1875 -34.3125 71.1875 C-35.075625 70.61 -35.83875 70.0325 -36.625 69.4375 C-41.1691375 65.63310582 -43.47608253 61.0742858 -44.3125 55.1875 C-44.52651081 51.93669818 -44.58886324 48.6946267 -44.625 45.4375 C-44.66850586 44.15359375 -44.66850586 44.15359375 -44.71289062 42.84375 C-44.82071201 31.89573215 -39.04853315 21.37315095 -31.66796875 13.4140625 C-28.98119916 11.06058838 -26.72643652 9.98408519 -23.3125 9.1875 C-21.95817325 7.87549596 -20.62516518 6.54118596 -19.3125 5.1875 C-16.49584868 3.55743796 -13.86844155 2.75799673 -10.6875 2.125 C-0.12021182 0.00101018 -0.12021182 0.00101018 0 0 Z M-8.3125 8.1875 C-6.8275 9.1775 -6.8275 9.1775 -5.3125 10.1875 C-4.9825 9.5275 -4.6525 8.8675 -4.3125 8.1875 C-5.6325 8.1875 -6.9525 8.1875 -8.3125 8.1875 Z M6.6875 8.1875 C6.6875 9.1775 6.6875 10.1675 6.6875 11.1875 C8.87422862 13.53692646 8.87422862 13.53692646 11.6875 15.1875 C13.8265583 14.85632758 13.8265583 14.85632758 15.6875 14.1875 C14.75963211 13.17855628 13.81981567 12.18059093 12.875 11.1875 C12.35292969 10.630625 11.83085938 10.07375 11.29296875 9.5 C9.64601033 7.871035 9.64601033 7.871035 6.6875 8.1875 Z M17.6875 9.1875 C19.0075 10.8375 20.3275 12.4875 21.6875 14.1875 C23.0075 13.8575 24.3275 13.5275 25.6875 13.1875 C22.01769796 10.27578211 22.01769796 10.27578211 17.6875 9.1875 Z M-0.3125 12.1875 C1.3375 13.8375 2.9875 15.4875 4.6875 17.1875 C3.89632096 15.18766466 3.89632096 15.18766466 2.6875 13.1875 C1.6975 12.8575 0.7075 12.5275 -0.3125 12.1875 Z M-22.3125 14.1875 C-22.3125 14.8475 -22.3125 15.5075 -22.3125 16.1875 C-19.66511084 17.6481285 -18.41801666 18.1875 -15.3125 18.1875 C-15.3125 16.8675 -15.3125 15.5475 -15.3125 14.1875 C-17.6225 14.1875 -19.9325 14.1875 -22.3125 14.1875 Z M-4.3125 19.1875 C-4.3125 20.8375 -4.3125 22.4875 -4.3125 24.1875 C-2.9925 24.1875 -1.6725 24.1875 -0.3125 24.1875 C-0.57926204 22.20258358 -0.57926204 22.20258358 -1.3125 20.1875 C-2.3025 19.8575 -3.2925 19.5275 -4.3125 19.1875 Z M26.6875 20.1875 C27.47867904 22.18733534 27.47867904 22.18733534 28.6875 24.1875 C29.6775 24.5175 30.6675 24.8475 31.6875 25.1875 C31.3575 23.8675 31.0275 22.5475 30.6875 21.1875 C29.3675 20.8575 28.0475 20.5275 26.6875 20.1875 Z M13.875 23.0625 C12.52489288 25.0727657 12.52489288 25.0727657 12.6875 27.1875 C15.6575 26.5275 18.6275 25.8675 21.6875 25.1875 C21.6875 24.1975 21.6875 23.2075 21.6875 22.1875 C20.63887906 20.93593946 20.63887906 20.93593946 18.3125 20.875 C15.5621284 20.92210129 15.5621284 20.92210129 13.875 23.0625 Z M-24.3125 22.1875 C-24.3125 22.8475 -24.3125 23.5075 -24.3125 24.1875 C-22.6625 24.1875 -21.0125 24.1875 -19.3125 24.1875 C-19.3125 23.5275 -19.3125 22.8675 -19.3125 22.1875 C-20.9625 22.1875 -22.6125 22.1875 -24.3125 22.1875 Z M-32.3125 23.1875 C-32.9725 24.5075 -33.6325 25.8275 -34.3125 27.1875 C-32.9925 26.5275 -31.6725 25.8675 -30.3125 25.1875 C-30.3125 24.5275 -30.3125 23.8675 -30.3125 23.1875 C-30.9725 23.1875 -31.6325 23.1875 -32.3125 23.1875 Z M36.6875 26.1875 C37.0175 27.1775 37.3475 28.1675 37.6875 29.1875 C37.6875 28.1975 37.6875 27.2075 37.6875 26.1875 C37.3575 26.1875 37.0275 26.1875 36.6875 26.1875 Z M-27.3125 33.1875 C-28.14458874 35.74043177 -28.7567366 38.06761704 -29.25 40.6875 C-29.38623779 41.40494385 -29.52247559 42.1223877 -29.6628418 42.86157227 C-30.63918451 49.01329142 -29.90027632 53.93099051 -26.3125 59.1875 C-25.6525 59.5175 -24.9925 59.8475 -24.3125 60.1875 C-23.6525 59.8575 -22.9925 59.5275 -22.3125 59.1875 C-22.3125 58.5275 -22.3125 57.8675 -22.3125 57.1875 C-21.77625 56.94 -21.24 56.6925 -20.6875 56.4375 C-19.90375 56.025 -19.12 55.6125 -18.3125 55.1875 C-17.301875 54.671875 -16.29125 54.15625 -15.25 53.625 C-11.34779112 50.38699689 -9.92340388 47.205639 -9.3125 42.1875 C-10.6622233 37.97953911 -12.73221993 34.80013681 -16.3125 32.1875 C-20.60414359 30.99730734 -23.46451861 30.62217907 -27.3125 33.1875 Z M19.5 34.17578125 C17.6875 35.1875 17.6875 35.1875 14.875 36.25 C12.3551871 37.09417925 12.3551871 37.09417925 10.6875 40.1875 C11.07837257 46.34123735 15.27790569 50.2619778 19.6875 54.1875 C22.38686399 55.64451711 24.6998951 56.38724869 27.6875 57.1875 C30.21740769 54.21760836 31.23694057 52.06231107 31.6875 48.1875 C31.81125 47.135625 31.935 46.08375 32.0625 45 C31.54303622 39.71878487 29.2651084 35.76275491 26.6875 31.1875 C23.78867774 31.1875 21.92827032 32.73399575 19.5 34.17578125 Z M37.6875 39.1875 C35.4101499 42.00259993 35.4101499 42.00259993 35.6875 45.1875 C36.6775 45.6825 36.6775 45.6825 37.6875 46.1875 C38.6775 47.6725 38.6775 47.6725 39.6875 49.1875 C40.84587626 45.13318308 40.52441257 42.96937881 38.6875 39.1875 C38.3575 39.1875 38.0275 39.1875 37.6875 39.1875 Z M-37.3125 43.1875 C-37.6425 44.8375 -37.9725 46.4875 -38.3125 48.1875 C-37.6525 47.8575 -36.9925 47.5275 -36.3125 47.1875 C-36.6425 45.8675 -36.9725 44.5475 -37.3125 43.1875 Z M-36.3125 52.1875 C-35.3125 55.1875 -35.3125 55.1875 -35.3125 55.1875 Z M6.6875 60.1875 C6.0275 60.8475 5.3675 61.5075 4.6875 62.1875 C5.0060177 64.29570797 5.0060177 64.29570797 5.6875 66.1875 C7.3375 64.5375 8.9875 62.8875 10.6875 61.1875 C8.79570797 60.5060177 8.79570797 60.5060177 6.6875 60.1875 Z M-36.3125 62.1875 C-35.3125 64.1875 -35.3125 64.1875 -35.3125 64.1875 Z M33.6875 62.1875 C33.6875 65.1875 33.6875 65.1875 33.6875 65.1875 Z M-10.3125 63.1875 C-11.52940533 64.95279595 -11.52940533 64.95279595 -12.3125 67.1875 C-11.52940533 69.42220405 -11.52940533 69.42220405 -10.3125 71.1875 C-9.6525 71.1875 -8.9925 71.1875 -8.3125 71.1875 C-7.9825 68.8775 -7.6525 66.5675 -7.3125 64.1875 C-8.3025 63.8575 -9.2925 63.5275 -10.3125 63.1875 Z M26.6875 64.1875 C27.6875 66.1875 27.6875 66.1875 27.6875 66.1875 Z M-30.3125 66.1875 C-29.3225 67.6725 -29.3225 67.6725 -28.3125 69.1875 C-27.6525 68.8575 -26.9925 68.5275 -26.3125 68.1875 C-27.6325 67.5275 -28.9525 66.8675 -30.3125 66.1875 Z M24.6875 66.1875 C23.33037834 67.74605981 23.33037834 67.74605981 22.0625 69.6875 C21.61648437 70.3371875 21.17046875 70.986875 20.7109375 71.65625 C20.37320313 72.1615625 20.03546875 72.666875 19.6875 73.1875 C21.3375 72.8575 22.9875 72.5275 24.6875 72.1875 C25.3475 70.2075 26.0075 68.2275 26.6875 66.1875 C26.0275 66.1875 25.3675 66.1875 24.6875 66.1875 Z M-22.3125 67.1875 C-21.3225 68.8375 -20.3325 70.4875 -19.3125 72.1875 C-18.6525 71.5275 -17.9925 70.8675 -17.3125 70.1875 C-17.9725 69.1975 -18.6325 68.2075 -19.3125 67.1875 C-20.3025 67.1875 -21.2925 67.1875 -22.3125 67.1875 Z M3.6875 73.1875 C3.0275 73.8475 2.3675 74.5075 1.6875 75.1875 C3.0075 75.1875 4.3275 75.1875 5.6875 75.1875 C5.6875 74.5275 5.6875 73.8675 5.6875 73.1875 C5.0275 73.1875 4.3675 73.1875 3.6875 73.1875 Z M-15.3125 76.1875 C-14.3125 78.1875 -14.3125 78.1875 -14.3125 78.1875 Z M8.6875 78.1875 C9.0175 78.8475 9.3475 79.5075 9.6875 80.1875 C10.0175 79.5275 10.3475 78.8675 10.6875 78.1875 C10.0275 78.1875 9.3675 78.1875 8.6875 78.1875 Z " fill="#2C884C" transform="translate(48.3125,-0.1875)"/>
<path d="M0 0 C-0.33 0.66 -0.66 1.32 -1 2 C-1.99 2.33 -2.98 2.66 -4 3 C-4.66 2.67 -5.32 2.34 -6 2 C-5.67 3.32 -5.34 4.64 -5 6 C0.16044765 7.512545 3.65998179 8.33500455 9 7 C9.33 6.01 9.66 5.02 10 4 C10.66 4 11.32 4 12 4 C14 6 14 6 14.1953125 7.9453125 C14.13020833 9.96354167 14.06510417 11.98177083 14 14 C15.98 14 17.96 14 20 14 C20.74957157 10.52852158 20.74957157 10.52852158 21 7 C24.34440677 6.41281408 27.59939315 5.94136885 31 6 C33.625 7.9375 33.625 7.9375 35 10 C34.34 10 33.68 10 33 10 C33 10.66 33 11.32 33 12 C32.01 12 31.02 12 30 12 C30.495 13.485 30.495 13.485 31 15 C35.17252206 14.56420325 39.30786632 14.12584249 43.4375 13.375 C46 13 46 13 48 14 C48.33 13.34 48.66 12.68 49 12 C50.65 12.66 52.3 13.32 54 14 C54.33 12.68 54.66 11.36 55 10 C58 14.75 58 14.75 58 17 C59.485 17.495 59.485 17.495 61 18 C61 17.01 61 16.02 61 15 C60.01 14.505 60.01 14.505 59 14 C59.99 14 60.98 14 62 14 C65.4922557 20.9845114 67.4896106 29.33965968 65 37 C63.0625 38.0625 63.0625 38.0625 61 39 C59.71745356 41.53770003 59.71745356 41.53770003 59 44 C58.67 44 58.34 44 58 44 C58 41.69 58 39.38 58 37 C56.02 36.67 54.04 36.34 52 36 C51.83564453 35.11248047 51.83564453 35.11248047 51.66796875 34.20703125 C50.732075 29.54278029 49.67286745 26.00930117 47 22 C47 21.34 47 20.68 47 20 C46.40832031 20.33773438 45.81664063 20.67546875 45.20703125 21.0234375 C44.02173828 21.69246094 44.02173828 21.69246094 42.8125 22.375 C41.99394531 22.83777344 41.17539063 23.30054687 40.33203125 23.77734375 C38 25 38 25 35 25.9375 C34.34 26.288125 33.68 26.63875 33 27 C32.02144722 30.46257138 32 33.39210397 32 37 C25.07 37 18.14 37 11 37 C10.34 34.03 9.68 31.06 9 28 C6.36455618 23.63685129 6.36455618 23.63685129 1.96484375 21.37890625 C-0.98534722 20.94521211 -3.28168098 20.64084049 -6 22 C-6.62852934 24.33247815 -7.15535246 26.69291467 -7.625 29.0625 C-7.88539062 30.35285156 -8.14578125 31.64320312 -8.4140625 32.97265625 C-8.60742188 33.97167969 -8.80078125 34.97070312 -9 36 C-12.01031744 36.93423645 -12.86650268 37.04449911 -16 36 C-16.33 35.34 -16.66 34.68 -17 34 C-18.65 34.66 -20.3 35.32 -22 36 C-23 35 -23 35 -23.25 32 C-23.03150445 22.20742671 -17.49171112 11.77610251 -10.90234375 4.76953125 C-10.27457031 4.18558594 -9.64679687 3.60164062 -9 3 C-8.34 2.34 -7.68 1.68 -7 1 C-2.38461538 -1.19230769 -2.38461538 -1.19230769 0 0 Z M-4 11 C-4 11.66 -4 12.32 -4 13 C-2.35 13 -0.7 13 1 13 C1 12.34 1 11.68 1 11 C-0.65 11 -2.3 11 -4 11 Z M-12 12 C-12.66 13.32 -13.32 14.64 -14 16 C-12.68 15.34 -11.36 14.68 -10 14 C-10 13.34 -10 12.68 -10 12 C-10.66 12 -11.32 12 -12 12 Z M58 28 C55.7226499 30.81509993 55.7226499 30.81509993 56 34 C56.99 34.495 56.99 34.495 58 35 C58.99 36.485 58.99 36.485 60 38 C61.15837626 33.94568308 60.83691257 31.78187881 59 28 C58.67 28 58.34 28 58 28 Z " fill="#3187CB" transform="translate(28,11)"/>
<path d="M0 0 C0.75925781 -0.01417969 1.51851562 -0.02835937 2.30078125 -0.04296875 C5.06975602 0.22441179 7.1252224 1.11826428 9.6875 2.1875 C11.63963714 2.6715449 13.5985425 3.12889899 15.5625 3.5625 C25.39511562 6.03868437 29.12781187 9.1345197 34.890625 17.62890625 C36.53917249 20.14608327 36.53917249 20.14608327 38.37890625 21.828125 C40.427042 23.95574065 40.37119396 26.34074561 40.6875 29.1875 C40.0275 29.1875 39.3675 29.1875 38.6875 29.1875 C37.3675 26.8775 36.0475 24.5675 34.6875 22.1875 C34.1925 23.6725 34.1925 23.6725 33.6875 25.1875 C33.0275 25.1875 32.3675 25.1875 31.6875 25.1875 C31.1925 23.7025 31.1925 23.7025 30.6875 22.1875 C29.6975 22.1875 28.7075 22.1875 27.6875 22.1875 C27.6875 23.1775 27.6875 24.1675 27.6875 25.1875 C23.6875 23.85416667 19.6875 22.52083333 15.6875 21.1875 C15.460625 21.80625 15.23375 22.425 15 23.0625 C13.30820165 25.80160209 11.69505839 26.23774472 8.6875 27.1875 C9.0175 25.8675 9.3475 24.5475 9.6875 23.1875 C10.6775 23.1875 11.6675 23.1875 12.6875 23.1875 C12.42073796 21.20258358 12.42073796 21.20258358 11.6875 19.1875 C8.93671116 18.27057039 7.32801087 18.07863917 4.5 18.125 C3.241875 18.145625 1.98375 18.16625 0.6875 18.1875 C1.1825 21.1575 1.1825 21.1575 1.6875 24.1875 C-1.3125 26.1875 -1.3125 26.1875 -4 25.8125 C-4.763125 25.60625 -5.52625 25.4 -6.3125 25.1875 C-6.456875 24.094375 -6.60125 23.00125 -6.75 21.875 C-7.19538104 18.25627013 -7.19538104 18.25627013 -8.3125 15.1875 C-8.9725 15.1875 -9.6325 15.1875 -10.3125 15.1875 C-10.6425 16.5075 -10.9725 17.8275 -11.3125 19.1875 C-17.36775768 20.57516322 -20.63260626 19.67868146 -26.3125 17.1875 C-26.3125 15.8675 -26.3125 14.5475 -26.3125 13.1875 C-24.6625 12.8575 -23.0125 12.5275 -21.3125 12.1875 C-23.87957742 12.1875 -25.0984478 12.88511635 -27.3125 14.1875 C-28.01375 14.88875 -28.715 15.59 -29.4375 16.3125 C-30.05625 16.93125 -30.675 17.55 -31.3125 18.1875 C-31.9725 18.1875 -32.6325 18.1875 -33.3125 18.1875 C-33.56773438 18.86167969 -33.82296875 19.53585938 -34.0859375 20.23046875 C-35.54118805 23.73882756 -37.22197835 27.11428552 -38.9375 30.5 C-39.42476562 31.46776367 -39.42476562 31.46776367 -39.921875 32.45507812 C-40.71691956 34.03347541 -41.51445634 35.61061694 -42.3125 37.1875 C-42.6425 37.1875 -42.9725 37.1875 -43.3125 37.1875 C-43.16464053 29.35094831 -39.79563619 24.45239545 -35.3125 18.1875 C-34.87421875 17.55070312 -34.4359375 16.91390625 -33.984375 16.2578125 C-31.02132062 12.28731963 -27.82166238 10.99116495 -23.3125 9.1875 C-21.94054426 7.89394173 -20.60067344 6.56451298 -19.3125 5.1875 C-16.49574931 3.55897176 -13.86764779 2.75783877 -10.6875 2.125 C-0.12021182 0.00101018 -0.12021182 0.00101018 0 0 Z M-8.3125 8.1875 C-6.8275 9.1775 -6.8275 9.1775 -5.3125 10.1875 C-4.9825 9.5275 -4.6525 8.8675 -4.3125 8.1875 C-5.6325 8.1875 -6.9525 8.1875 -8.3125 8.1875 Z M6.6875 8.1875 C6.6875 9.1775 6.6875 10.1675 6.6875 11.1875 C8.87422862 13.53692646 8.87422862 13.53692646 11.6875 15.1875 C13.8265583 14.85632758 13.8265583 14.85632758 15.6875 14.1875 C14.75963211 13.17855628 13.81981567 12.18059093 12.875 11.1875 C12.35292969 10.630625 11.83085938 10.07375 11.29296875 9.5 C9.64601033 7.871035 9.64601033 7.871035 6.6875 8.1875 Z M17.6875 9.1875 C19.0075 10.8375 20.3275 12.4875 21.6875 14.1875 C23.0075 13.8575 24.3275 13.5275 25.6875 13.1875 C22.01769796 10.27578211 22.01769796 10.27578211 17.6875 9.1875 Z M-0.3125 12.1875 C1.3375 13.8375 2.9875 15.4875 4.6875 17.1875 C3.89632096 15.18766466 3.89632096 15.18766466 2.6875 13.1875 C1.6975 12.8575 0.7075 12.5275 -0.3125 12.1875 Z M-22.3125 14.1875 C-22.3125 14.8475 -22.3125 15.5075 -22.3125 16.1875 C-19.66511084 17.6481285 -18.41801666 18.1875 -15.3125 18.1875 C-15.3125 16.8675 -15.3125 15.5475 -15.3125 14.1875 C-17.6225 14.1875 -19.9325 14.1875 -22.3125 14.1875 Z M-4.3125 19.1875 C-4.3125 20.8375 -4.3125 22.4875 -4.3125 24.1875 C-2.9925 24.1875 -1.6725 24.1875 -0.3125 24.1875 C-0.57926204 22.20258358 -0.57926204 22.20258358 -1.3125 20.1875 C-2.3025 19.8575 -3.2925 19.5275 -4.3125 19.1875 Z " fill="#1F496F" transform="translate(48.3125,-0.1875)"/>
<path d="M0 0 C2.04119788 1.61594832 4.04072937 3.2856382 6 5 C6 5.66 6 6.32 6 7 C7.32 6.34 8.64 5.68 10 5 C9.773125 5.556875 9.54625 6.11375 9.3125 6.6875 C8.80036854 9.10911046 8.80036854 9.10911046 10 11.6875 C11.91404535 14.36635142 11.91404535 14.36635142 15.6875 14.8125 C16.780625 14.874375 17.87375 14.93625 19 15 C18.67 13.68 18.34 12.36 18 11 C20 11 20 11 21.5 12.1875 C23.26495414 14.32015292 24.08699059 16.40143476 25 19 C26.32 19 27.64 19 29 19 C27.35 18.34 25.7 17.68 24 17 C24 16.34 24 15.68 24 15 C24.66 15 25.32 15 26 15 C26 13.35 26 11.7 26 10 C26.66 9.67 27.32 9.34 28 9 C28.66 9.66 29.32 10.32 30 11 C30.99 11 31.98 11 33 11 C33.495 11.99 33.495 11.99 34 13 C34.99 12.67 35.98 12.34 37 12 C37 13.66666667 37 15.33333333 37 17 C37.66 16.67 38.32 16.34 39 16 C39 14.68 39 13.36 39 12 C45.75 12.875 45.75 12.875 48 14 C48.144375 13.236875 48.28875 12.47375 48.4375 11.6875 C49 9 49 9 50 6 C50.66 6 51.32 6 52 6 C51.40075776 10.19469571 50.42500059 14.00999834 49 18 C50.32 18.66 51.64 19.32 53 20 C53 19.34 53 18.68 53 18 C52.01 18 51.02 18 50 18 C50 17.34 50 16.68 50 16 C51.32 16 52.64 16 54 16 C54 17.98 54 19.96 54 22 C54.66 22 55.32 22 56 22 C56.33 20.35 56.66 18.7 57 17 C58.32 16.67 59.64 16.34 61 16 C60.01312297 21.03307285 59.01969462 23.77166547 54.6875 26.9375 C48.26317079 30.98244802 42.47905878 31.67525139 35 32 C33.9790625 32.05285156 32.958125 32.10570312 31.90625 32.16015625 C25.49399007 32.34637087 20.83353017 31.69239854 15 29 C15 28.34 15 27.68 15 27 C14.34 27 13.68 27 13 27 C13 26.34 13 25.68 13 25 C11.9275 24.7525 10.855 24.505 9.75 24.25 C5.87447202 22.95815734 4.37320614 22.25217138 2 19 C0.75 15.25 0.75 15.25 0 12 C0.66 11.67 1.32 11.34 2 11 C2 11.66 2 12.32 2 13 C3.65 13 5.3 13 7 13 C7 11.35 7 9.7 7 8 C6.34 8 5.68 8 5 8 C5 7.34 5 6.68 5 6 C4.38125 5.9175 3.7625 5.835 3.125 5.75 C1 5 1 5 -0.25 2.9375 C-0.62125 1.9784375 -0.62125 1.9784375 -1 1 C-0.67 0.67 -0.34 0.34 0 0 Z M16 19 C17 21 17 21 17 21 Z M40 21 C40.33 21.66 40.66 22.32 41 23 C41.33 22.34 41.66 21.68 42 21 C41.34 21 40.68 21 40 21 Z " fill="#488548" transform="translate(17,57)"/>
<path d="M0 0 C2.12999997 3.79039366 2.16702456 6.65736138 2 11 C3.79156352 11.16777183 5.5832545 11.33418294 7.375 11.5 C8.37273438 11.5928125 9.37046875 11.685625 10.3984375 11.78125 C12.89703736 12.02792947 12.89703736 12.02792947 15 12 C15.103125 12.86625 15.20625 13.7325 15.3125 14.625 C16.03398414 18.16683123 17.27123261 20.84312042 19 24 C19.99 24 20.98 24 22 24 C22 23.34 22 22.68 22 22 C22.66 22.33 23.32 22.66 24 23 C24.33 23.99 24.66 24.98 25 26 C25.7425 25.67 26.485 25.34 27.25 25 C30 24 30 24 34 24 C34 24.66 34 25.32 34 26 C35.65 26.33 37.3 26.66 39 27 C39 30.3 39 33.6 39 37 C38.34 37 37.68 37 37 37 C37 37.66 37 38.32 37 39 C38.2065625 39.185625 38.2065625 39.185625 39.4375 39.375 C40.283125 39.58125 41.12875 39.7875 42 40 C42.33 40.66 42.66 41.32 43 42 C40.69 41.34 38.38 40.68 36 40 C36 36.37 36 32.74 36 29 C35.01 29.33 34.02 29.66 33 30 C33 30.99 33 31.98 33 33 C32.34 33 31.68 33 31 33 C31.66 34.65 32.32 36.3 33 38 C31.02 38.495 31.02 38.495 29 39 C29 38.34 29 37.68 29 37 C27.515 36.505 27.515 36.505 26 36 C25.67 35.01 25.34 34.02 25 33 C22.99983534 31.79117904 22.99983534 31.79117904 21 31 C21.66 30.67 22.32 30.34 23 30 C22.67 29.34 22.34 28.68 22 28 C21.01 28.33 20.02 28.66 19 29 C19 28.34 19 27.68 19 27 C18.38125 26.71125 17.7625 26.4225 17.125 26.125 C15 25 15 25 13 23 C13.79117904 24.99983534 13.79117904 24.99983534 15 27 C15.99 27.33 16.98 27.66 18 28 C18 28.66 18 29.32 18 30 C18.66 30 19.32 30 20 30 C20 31.65 20 33.3 20 35 C18.515 35.495 18.515 35.495 17 36 C16.01 35.34 15.02 34.68 14 34 C14.22860058 35.46184058 14.48370392 36.91955419 14.75 38.375 C14.88921875 39.18710938 15.0284375 39.99921875 15.171875 40.8359375 C15.8094139 43.13763204 15.8094139 43.13763204 17.875 44.21875 C20.56517786 45.20778598 23.2687087 46.13095277 26 47 C26 47.33 26 47.66 26 48 C23.69 48 21.38 48 19 48 C19 47.34 19 46.68 19 46 C18.01 46 17.02 46 16 46 C14.6484375 44.57421875 14.6484375 44.57421875 13.375 42.6875 C12.94960938 42.07261719 12.52421875 41.45773438 12.0859375 40.82421875 C11 39 11 39 10 36 C9.236875 35.4225 8.47375 34.845 7.6875 34.25 C3.12055144 30.42650818 0.90696894 25.90115856 0 20 C-0.07649781 18.38038502 -0.10811681 16.75810555 -0.09765625 15.13671875 C-0.09443359 14.25048828 -0.09121094 13.36425781 -0.08789062 12.45117188 C-0.07951172 11.53916016 -0.07113281 10.62714844 -0.0625 9.6875 C-0.05798828 8.75615234 -0.05347656 7.82480469 -0.04882812 6.86523438 C-0.03709234 4.57675627 -0.02067363 2.28841192 0 0 Z M8 17 C9 20 9 20 9 20 Z M8 27 C9 29 9 29 9 29 Z M14 31 C14.99 32.485 14.99 32.485 16 34 C16.66 33.67 17.32 33.34 18 33 C16.68 32.34 15.36 31.68 14 31 Z " fill="#32884E" transform="translate(4,35)"/>
<path d="M0 0 C0.66 0.66 1.32 1.32 2 2 C1.34 2 0.68 2 0 2 C0 2.66 0 3.32 0 4 C-0.99 4 -1.98 4 -3 4 C-2.67 4.99 -2.34 5.98 -2 7 C2.17252206 6.56420325 6.30786632 6.12584249 10.4375 5.375 C13 5 13 5 15 6 C15.33 5.34 15.66 4.68 16 4 C17.65 4.66 19.3 5.32 21 6 C21.33 4.68 21.66 3.36 22 2 C25 6.75 25 6.75 25 9 C25.99 9.33 26.98 9.66 28 10 C28 9.01 28 8.02 28 7 C27.34 6.67 26.68 6.34 26 6 C26.99 6 27.98 6 29 6 C32.4922557 12.9845114 34.4896106 21.33965968 32 29 C30.0625 30.0625 30.0625 30.0625 28 31 C26.71745356 33.53770003 26.71745356 33.53770003 26 36 C25.67 36 25.34 36 25 36 C25 33.69 25 31.38 25 29 C23.02 28.67 21.04 28.34 19 28 C18.83564453 27.11248047 18.83564453 27.11248047 18.66796875 26.20703125 C17.732075 21.54278029 16.67286745 18.00930117 14 14 C14 13.34 14 12.68 14 12 C13.39671875 12.37253906 12.7934375 12.74507812 12.171875 13.12890625 C11.37265625 13.60199219 10.5734375 14.07507813 9.75 14.5625 C8.96109375 15.03816406 8.1721875 15.51382813 7.359375 16.00390625 C4.69155375 17.13022151 3.65498232 17.0169313 1 16 C2.65 15.67 4.3 15.34 6 15 C5.67 14.34 5.34 13.68 5 13 C4.67 12.34 4.34 11.68 4 11 C2.9275 11.04125 1.855 11.0825 0.75 11.125 C-3.87156223 10.97094793 -5.78438347 10.21561653 -9 7 C-9.99 7 -10.98 7 -12 7 C-11.34 6.34 -10.68 5.68 -10 5 C-10.66 3.02 -11.32 1.04 -12 -1 C-3.34285714 -2.44285714 -3.34285714 -2.44285714 0 0 Z M25 20 C22.7226499 22.81509993 22.7226499 22.81509993 23 26 C23.99 26.495 23.99 26.495 25 27 C25.99 28.485 25.99 28.485 27 30 C28.15837626 25.94568308 27.83691257 23.78187881 26 20 C25.67 20 25.34 20 25 20 Z " fill="#3C84B7" transform="translate(61,19)"/>
<path d="M0 0 C2.00720923 0.28674418 4.0085944 0.61866701 6 1 C6.33 2.98 6.66 4.96 7 7 C7.99 4.69 8.98 2.38 10 0 C10.99 0.33 11.98 0.66 13 1 C15.05409791 5.74022594 12.7478473 10.4599485 11 15 C9.25 18 9.25 18 7 21 C6.45988281 21.84175781 5.91976562 22.68351562 5.36328125 23.55078125 C4.76902344 24.46214844 4.17476562 25.37351562 3.5625 26.3125 C3.00691406 27.17488281 2.45132813 28.03726563 1.87890625 28.92578125 C-0.35920396 31.39654325 -1.73670839 31.70333713 -5 32 C-4.67 30.68 -4.34 29.36 -4 28 C-4.66 28.33 -5.32 28.66 -6 29 C-6.33 29.99 -6.66 30.98 -7 32 C-7.66 32 -8.32 32 -9 32 C-9.32813094 27.29678993 -8.68305541 24.86359979 -6 21 C-5.67 20.34 -5.34 19.68 -5 19 C-6.98 20.65 -8.96 22.3 -11 24 C-11 20 -11 20 -9.625 18.3125 C-8 17 -8 17 -6 16 C-6 15.34 -6 14.68 -6 14 C-4.68 14 -3.36 14 -2 14 C-2 13.01 -2 12.02 -2 11 C-2.66 11 -3.32 11 -4 11 C-3.5247412 9.35303396 -3.04468109 7.70745272 -2.5625 6.0625 C-2.29566406 5.14597656 -2.02882813 4.22945312 -1.75390625 3.28515625 C-1 1 -1 1 0 0 Z M2 15 C2 18 2 18 2 18 Z M-5 17 C-4 19 -4 19 -4 19 Z " fill="#398D57" transform="translate(80,47)"/>
<path d="M0 0 C0.77190674 0.03029297 1.54381348 0.06058594 2.33911133 0.09179688 C5.83021765 0.22846595 9.32135808 0.36424356 12.8125 0.5 C14.02744141 0.54769531 15.24238281 0.59539063 16.49414062 0.64453125 C18.23920898 0.71220703 18.23920898 0.71220703 20.01953125 0.78125 C21.09307861 0.82314453 22.16662598 0.86503906 23.27270508 0.90820312 C25.18096796 0.97243254 27.09065649 1 29 1 C28.67 1.66 28.34 2.32 28 3 C26.7934375 3.1546875 26.7934375 3.1546875 25.5625 3.3125 C22.83278486 3.73806436 22.83278486 3.73806436 21.625 6.125 C20.85673932 9.65899913 21.38759258 12.46164603 22 16 C21 17 21 17 18.95874023 17.11352539 C18.08419189 17.10828857 17.20964355 17.10305176 16.30859375 17.09765625 C15.36435547 17.09443359 14.42011719 17.09121094 13.44726562 17.08789062 C11.95743164 17.07532227 11.95743164 17.07532227 10.4375 17.0625 C9.44041016 17.05798828 8.44332031 17.05347656 7.41601562 17.04882812 C4.94395151 17.03700007 2.47200482 17.02051849 0 17 C-0.65891398 13.38120261 -1.13768771 9.92943603 -1.125 6.25 C-1.12757812 5.49203125 -1.13015625 4.7340625 -1.1328125 3.953125 C-1 2 -1 2 0 0 Z " fill="#69ABBC" transform="translate(39,31)"/>
<path d="M0 0 C0.66 0 1.32 0 2 0 C2 1.98 2 3.96 2 6 C2.33 4.68 2.66 3.36 3 2 C6.41602015 1.82553066 9.83089637 1.71910377 13.25 1.625 C14.21808594 1.57472656 15.18617187 1.52445313 16.18359375 1.47265625 C18.91250774 1.41619596 21.32932686 1.42805859 24 2 C26.53515625 4.94921875 26.53515625 4.94921875 28 8 C30.09989652 9.17574711 30.09989652 9.17574711 32 10 C32.495 11.485 32.495 11.485 33 13 C31.1875 13.625 31.1875 13.625 29 14 C28.01 13.34 27.02 12.68 26 12 C26 11.01 26 10.02 26 9 C20.15710689 8.66047572 20.15710689 8.66047572 15 11 C13.90341064 14.28976808 14.20046862 15.71303767 15 19 C12.36 19 9.72 19 7 19 C6.67 17.35 6.34 15.7 6 14 C4.68 13.67 3.36 13.34 2 13 C2 12.34 2 11.68 2 11 C1.2575 11.33 0.515 11.66 -0.25 12 C-3 13 -3 13 -7 13 C-7 12.34 -7 11.68 -7 11 C-7.66 10.67 -8.32 10.34 -9 10 C-4.56923077 4.21538462 -4.56923077 4.21538462 -1.6875 3.125 C-1.130625 3.08375 -0.57375 3.0425 0 3 C0 2.01 0 1.02 0 0 Z " fill="#1A9846" transform="translate(36,48)"/>
<path d="M0 0 C3.0625 2.5 3.0625 2.5 5 5 C3.02 5.66 1.04 6.32 -1 7 C-1.66 6.34 -2.32 5.68 -3 5 C-7.60461691 3.95744523 -10.84429886 3.55546992 -15 6 C-15.33 6.99 -15.66 7.98 -16 9 C-16.66 9 -17.32 9 -18 9 C-18 8.34 -18 7.68 -18 7 C-19.65 7.33 -21.3 7.66 -23 8 C-22.01 8.66 -21.02 9.32 -20 10 C-18.00232921 13.04907647 -17.79983178 15.39697197 -18 19 C-22.97601626 20.71050559 -26.42616295 19.00885647 -31 17 C-31 15.68 -31 14.36 -31 13 C-29.35 12.67 -27.7 12.34 -26 12 C-28.56707742 12 -29.7859478 12.69761635 -32 14 C-32.70125 14.70125 -33.4025 15.4025 -34.125 16.125 C-34.74375 16.74375 -35.3625 17.3625 -36 18 C-36.66 18 -37.32 18 -38 18 C-38.25523438 18.67417969 -38.51046875 19.34835938 -38.7734375 20.04296875 C-40.22868805 23.55132756 -41.90947835 26.92678552 -43.625 30.3125 C-44.11226562 31.28026367 -44.11226562 31.28026367 -44.609375 32.26757812 C-45.40441956 33.84597541 -46.20195634 35.42311694 -47 37 C-47.33 37 -47.66 37 -48 37 C-47.85214053 29.16344831 -44.48313619 24.26489545 -40 18 C-39.56171875 17.36320312 -39.1234375 16.72640625 -38.671875 16.0703125 C-35.70882062 12.09981963 -32.50916238 10.80366495 -28 9 C-26.62804426 7.70644173 -25.28817344 6.37701298 -24 5 C-21.18324931 3.37147176 -18.55514779 2.57033877 -15.375 1.9375 C-3.17524927 -0.51460937 -3.17524927 -0.51460937 0 0 Z M-27 14 C-27 14.66 -27 15.32 -27 16 C-24.35261084 17.4606285 -23.10551666 18 -20 18 C-20 16.68 -20 15.36 -20 14 C-22.31 14 -24.62 14 -27 14 Z " fill="#1A3E5E" transform="translate(53,0)"/>
<path d="M0 0 C1.32 0 2.64 0 4 0 C4 1.98 4 3.96 4 6 C4.66 6 5.32 6 6 6 C6.33 4.35 6.66 2.7 7 1 C8.32 0.67 9.64 0.34 11 0 C10.01312297 5.03307285 9.01969462 7.77166547 4.6875 10.9375 C-4.39529504 16.65629688 -14.57673608 16.20349105 -25 16 C-25.33 15.34 -25.66 14.68 -26 14 C-27.64363134 13.27840576 -29.31050386 12.60648579 -31 12 C-27.68542518 9.96798793 -25.62376055 9.89142574 -21.8125 10.4375 C-20.21281288 10.66000407 -18.60869247 10.85641907 -17 11 C-16.67 10.67 -16.34 10.34 -16 10 C-13.32941149 9.85884839 -10.67567762 9.95752893 -8 10 C-7.34 8.68 -6.68 7.36 -6 6 C-4.35 6 -2.7 6 -1 6 C-1 5.34 -1 4.68 -1 4 C0.32 4 1.64 4 3 4 C3 3.34 3 2.68 3 2 C2.01 2 1.02 2 0 2 C0 1.34 0 0.68 0 0 Z " fill="#659960" transform="translate(67,73)"/>
<path d="M0 0 C2.25 -0.0625 2.25 -0.0625 5 1 C6.69300427 3.86674844 7.86963623 6.87413371 9 10 C9.99 10 10.98 10 12 10 C12 9.34 12 8.68 12 8 C12.66 8.33 13.32 8.66 14 9 C14.33 9.99 14.66 10.98 15 12 C15.7425 11.67 16.485 11.34 17.25 11 C20 10 20 10 24 10 C24 10.66 24 11.32 24 12 C26.475 12.495 26.475 12.495 29 13 C29 16.3 29 19.6 29 23 C28.34 23 27.68 23 27 23 C27 23.66 27 24.32 27 25 C27.804375 25.12375 28.60875 25.2475 29.4375 25.375 C30.7059375 25.684375 30.7059375 25.684375 32 26 C32.495 26.99 32.495 26.99 33 28 C30.69 27.34 28.38 26.68 26 26 C26 22.37 26 18.74 26 15 C25.01 15.33 24.02 15.66 23 16 C23 16.99 23 17.98 23 19 C22.34 19 21.68 19 21 19 C21.66 20.65 22.32 22.3 23 24 C21.68 24.33 20.36 24.66 19 25 C19 24.34 19 23.68 19 23 C18.01 22.67 17.02 22.34 16 22 C15.67 21.01 15.34 20.02 15 19 C12.99983534 17.79117904 12.99983534 17.79117904 11 17 C11.66 16.67 12.32 16.34 13 16 C12.67 15.34 12.34 14.68 12 14 C11.01 14.33 10.02 14.66 9 15 C9 14.34 9 13.68 9 13 C8.38125 12.7525 7.7625 12.505 7.125 12.25 C4.60474173 10.76749514 3.98768341 9.71612936 3 7 C3 6.01 3 5.02 3 4 C2.34 4 1.68 4 1 4 C1 4.66 1 5.32 1 6 C0.34 6 -0.32 6 -1 6 C-0.67 4.02 -0.34 2.04 0 0 Z " fill="#2A9350" transform="translate(14,49)"/>
<path d="M0 0 C3 1 3 1 4 3 C5.32 3 6.64 3 8 3 C8.64834654 4.269553 9.29357815 5.54069706 9.9375 6.8125 C10.29714844 7.52019531 10.65679687 8.22789063 11.02734375 8.95703125 C12.98625665 13.07153504 13.21709053 15.59974961 12 20 C10.0625 21.0625 10.0625 21.0625 8 22 C6.71745356 24.53770003 6.71745356 24.53770003 6 27 C5.67 27 5.34 27 5 27 C5 24.69 5 22.38 5 20 C3.02 19.67 1.04 19.34 -1 19 C-0.95875 17.865625 -0.9175 16.73125 -0.875 15.5625 C-0.85816159 10.85616438 -1.82378223 6.53683996 -3 2 C-2.01 2 -1.02 2 0 2 C0 1.34 0 0.68 0 0 Z M5 11 C2.7226499 13.81509993 2.7226499 13.81509993 3 17 C3.99 17.495 3.99 17.495 5 18 C5.99 19.485 5.99 19.485 7 21 C8.15837626 16.94568308 7.83691257 14.78187881 6 11 C5.67 11 5.34 11 5 11 Z " fill="#5C92A3" transform="translate(81,28)"/>
<path d="M0 0 C6.88542655 -0.62594787 11.58242333 0.57344345 17 5 C19.28441049 7.72616932 21.30290785 10.51671344 23.2734375 13.4765625 C24.85559509 15.96776109 24.85559509 15.96776109 26.68359375 17.63671875 C28.73945524 19.765786 28.68300001 22.14700011 29 25 C28.34 25 27.68 25 27 25 C25.68 22.69 24.36 20.38 23 18 C22.505 19.485 22.505 19.485 22 21 C21.34 21 20.68 21 20 21 C19.67 20.01 19.34 19.02 19 18 C16.99983534 16.79117904 16.99983534 16.79117904 15 16 C15 15.67 15 15.34 15 15 C16.65 15 18.3 15 20 15 C17.3075663 11.21064887 15.4157993 9.43513477 11 8 C9.65949948 7.34786461 8.32338632 6.68620031 7 6 C7 6.66 7 7.32 7 8 C6.34 8 5.68 8 5 8 C5 8.66 5 9.32 5 10 C2.11562221 8.70700306 0.12780579 7.34058637 -2 5 C-2.99 5.33 -3.98 5.66 -5 6 C-5.83333333 7.91666667 -5.83333333 7.91666667 -6 10 C-5.67 10.66 -5.34 11.32 -5 12 C-6.32 11.34 -7.64 10.68 -9 10 C-9 6 -9 6 -7.875 4.25 C-5.15280427 2.43520285 -3.20760946 2.67269291 0 3 C2.375 4 2.375 4 4 5 C3.24849977 1.72226496 3.24849977 1.72226496 0 0 Z " fill="#192D43" transform="translate(60,4)"/>
<path d="M0 0 C0.66 0.99 1.32 1.98 2 3 C4.56282742 3.72965366 4.56282742 3.72965366 7 4 C7 4.66 7 5.32 7 6 C6.34 6 5.68 6 5 6 C5 7.65 5 9.3 5 11 C4.34 11 3.68 11 3 11 C3 11.99 3 12.98 3 14 C0.03 13.34 -2.94 12.68 -6 12 C-5.67 13.98 -5.34 15.96 -5 18 C-5.99 17.67 -6.98 17.34 -8 17 C-8.33333333 15.66666667 -8.66666667 14.33333333 -9 13 C-12.13349732 11.95550089 -12.98968256 12.06576355 -16 13 C-15.67 12.01 -15.34 11.02 -15 10 C-13.68 10 -12.36 10 -11 10 C-11.37125 9.071875 -11.7425 8.14375 -12.125 7.1875 C-12.41375 6.135625 -12.7025 5.08375 -13 4 C-9.3769152 -1.43462721 -6.25320568 -1.50540137 0 0 Z M-7 3 C-7.66 3.66 -8.32 4.32 -9 5 C-8.6814823 7.10820797 -8.6814823 7.10820797 -8 9 C-6.35 7.35 -4.7 5.7 -3 4 C-4.89179203 3.3185177 -4.89179203 3.3185177 -7 3 Z " fill="#2A8F45" transform="translate(62,57)"/>
<path d="M0 0 C2.64 0 5.28 0 8 0 C8.33 1.32 8.66 2.64 9 4 C8.01 4.33 7.02 4.66 6 5 C5.67 5.66 5.34 6.32 5 7 C6.65 7 8.3 7 10 7 C11.60725635 10.21451269 11.05748185 13.43612536 11 17 C7.98968256 17.93423645 7.13349732 18.04449911 4 17 C3.67 16.34 3.34 15.68 3 15 C1.35 15.66 -0.3 16.32 -2 17 C-3 16 -3 16 -3.25 13 C-3.21147976 8.36794088 -1.63254021 4.28541805 0 0 Z " fill="#7EA6B1" transform="translate(8,30)"/>
<path d="M0 0 C-0.33 0.66 -0.66 1.32 -1 2 C-1.99 2.33 -2.98 2.66 -4 3 C-4.66 2.67 -5.32 2.34 -6 2 C-5.67 3.32 -5.34 4.64 -5 6 C-1.7 6.66 1.6 7.32 5 8 C6 11 6 11 5.4375 13.0625 C3.41381358 15.79007734 1.21178058 16.1621442 -2 17 C-2 16.34 -2 15.68 -2 15 C-7.01535052 15.32960216 -7.01535052 15.32960216 -11 18 C-13.625 17.625 -13.625 17.625 -16 17 C-16.75 15.375 -16.75 15.375 -17 13 C-14.81167191 9.10963895 -12.25227539 6.03545703 -9 3 C-8.34 2.34 -7.68 1.68 -7 1 C-2.38461538 -1.19230769 -2.38461538 -1.19230769 0 0 Z M-4 11 C-4 11.66 -4 12.32 -4 13 C-2.35 13 -0.7 13 1 13 C1 12.34 1 11.68 1 11 C-0.65 11 -2.3 11 -4 11 Z M-12 12 C-12.66 13.32 -13.32 14.64 -14 16 C-12.68 15.34 -11.36 14.68 -10 14 C-10 13.34 -10 12.68 -10 12 C-10.66 12 -11.32 12 -12 12 Z " fill="#386D9F" transform="translate(28,11)"/>
<path d="M0 0 C2.04119788 1.61594832 4.04072937 3.2856382 6 5 C6 5.66 6 6.32 6 7 C7.32 6.34 8.64 5.68 10 5 C9.773125 5.556875 9.54625 6.11375 9.3125 6.6875 C8.77723383 9.12954337 8.77723383 9.12954337 10.1875 11.6875 C11.78086589 14.1355968 11.78086589 14.1355968 14.1875 14.8125 C14.785625 14.874375 15.38375 14.93625 16 15 C16 16.98 16 18.96 16 21 C16.66 21.33 17.32 21.66 18 22 C10.21518987 24.59493671 10.21518987 24.59493671 6 23 C1.97395784 20.00922582 1.10496899 16.78819896 0 12 C0.66 11.67 1.32 11.34 2 11 C2 11.66 2 12.32 2 13 C3.65 13 5.3 13 7 13 C7 11.35 7 9.7 7 8 C6.34 8 5.68 8 5 8 C5 7.34 5 6.68 5 6 C4.38125 5.9175 3.7625 5.835 3.125 5.75 C1 5 1 5 -0.25 2.9375 C-0.62125 1.9784375 -0.62125 1.9784375 -1 1 C-0.67 0.67 -0.34 0.34 0 0 Z " fill="#4C8456" transform="translate(17,57)"/>
<path d="M0 0 C0.66 0 1.32 0 2 0 C2.94296589 3.66708957 3.11421833 6.35346727 2 10 C1.01 10.495 1.01 10.495 0 11 C0.99 11.33 1.98 11.66 3 12 C3 12.66 3 13.32 3 14 C3.66 14 4.32 14 5 14 C4.53256152 18.11345859 4.11081018 21.11139055 1 24 C-1.5625 24.1875 -1.5625 24.1875 -4 24 C-4.66 24.33 -5.32 24.66 -6 25 C-5.67 23.02 -5.34 21.04 -5 19 C-6.98 20.65 -8.96 22.3 -11 24 C-11 20 -11 20 -9.625 18.3125 C-8 17 -8 17 -6 16 C-6 15.34 -6 14.68 -6 14 C-4.68 14 -3.36 14 -2 14 C-2 13.01 -2 12.02 -2 11 C-2.66 11 -3.32 11 -4 11 C-3.5247412 9.35303396 -3.04468109 7.70745272 -2.5625 6.0625 C-2.29566406 5.14597656 -2.02882813 4.22945312 -1.75390625 3.28515625 C-1 1 -1 1 0 0 Z M2 15 C2 18 2 18 2 18 Z M-5 17 C-4 19 -4 19 -4 19 Z " fill="#36804C" transform="translate(80,47)"/>
<path d="M0 0 C0.98828125 1.89453125 0.98828125 1.89453125 0.98828125 7.89453125 C-5.28171875 7.89453125 -11.55171875 7.89453125 -18.01171875 7.89453125 C-18.01171875 5.25453125 -18.01171875 2.61453125 -18.01171875 -0.10546875 C-15.40807466 -0.35414822 -12.80581981 -0.58004777 -10.19921875 -0.79296875 C-9.09223633 -0.9022168 -9.09223633 -0.9022168 -7.96289062 -1.01367188 C-2.59595181 -1.42651332 -2.59595181 -1.42651332 0 0 Z " fill="#BFE3DF" transform="translate(58.01171875,39.10546875)"/>
<path d="M0 0 C0.33 0.99 0.66 1.98 1 3 C4.25234959 3.27877282 5.72602746 3.16705642 8.5625 1.4375 C11 0 11 0 13.3125 0.3125 C13.869375 0.539375 14.42625 0.76625 15 1 C15 1.66 15 2.32 15 3 C16.32 3 17.64 3 19 3 C19 3.66 19 4.32 19 5 C19.7425 5.226875 20.485 5.45375 21.25 5.6875 C24.5425747 7.2589561 25.97497109 8.99995716 28 12 C28 12.66 28 13.32 28 14 C27.34 14 26.68 14 26 14 C25.29875 13.030625 24.5975 12.06125 23.875 11.0625 C21.72115541 8.33643998 20.26178661 7.51322348 16.8125 7.0625 C13.19578238 6.70968619 13.19578238 6.70968619 11 8 C10.31527335 9.88764903 10.31527335 9.88764903 9.875 12.0625 C9.62363281 13.16271484 9.62363281 13.16271484 9.3671875 14.28515625 C9.24601562 14.85105469 9.12484375 15.41695312 9 16 C8.34 14.68 7.68 13.36 7 12 C5.35 12 3.7 12 2 12 C2.33 11.01 2.66 10.02 3 9 C3.99 9 4.98 9 6 9 C3.60490662 6.10067643 1.68754757 5.49831724 -2 5 C-1.34 3.35 -0.68 1.7 0 0 Z " fill="#3B7EAD" transform="translate(11,25)"/>
<path d="M0 0 C1.37562854 1.28965176 2.70766393 2.62689293 4 4 C4 4.66 4 5.32 4 6 C2.35 6 0.7 6 -1 6 C-0.67 7.98 -0.34 9.96 0 12 C-4 10.66666667 -8 9.33333333 -12 8 C-12.226875 8.61875 -12.45375 9.2375 -12.6875 9.875 C-14.37929835 12.61410209 -15.99244161 13.05024472 -19 14 C-18.67 12.68 -18.34 11.36 -18 10 C-17.01 10 -16.02 10 -15 10 C-15.33 8.68 -15.66 7.36 -16 6 C-17.32 5.67 -18.64 5.34 -20 5 C-19.67 4.01 -19.34 3.02 -19 2 C-17.9275 2.20625 -16.855 2.4125 -15.75 2.625 C-11.861765 3.0138235 -11.21665088 2.71554714 -8 1 C-6.33178677 1.32550502 -4.66500443 1.65846063 -3 2 C-2.01 1.34 -1.02 0.68 0 0 Z " fill="#2E6291" transform="translate(76,13)"/>
<path d="M0 0 C1.76447926 0.94759072 3.52585453 1.90555343 5.23046875 2.95703125 C7.09087838 4.12328752 7.09087838 4.12328752 9.6875 5 C12.6048787 6.26156917 14.07652509 7.4582653 16 10 C16.75 13.75 16.75 13.75 17 17 C14 19 14 19 11.3125 18.625 C10.1678125 18.315625 10.1678125 18.315625 9 18 C8.855625 16.906875 8.71125 15.81375 8.5625 14.6875 C8.11711896 11.06877013 8.11711896 11.06877013 7 8 C6.34 8 5.68 8 5 8 C4.67 9.32 4.34 10.64 4 12 C1.38952199 10.694761 1.31933577 9.64173426 0.375 6.9375 C0.11460938 6.20402344 -0.14578125 5.47054688 -0.4140625 4.71484375 C-0.60742188 4.14894531 -0.80078125 3.58304688 -1 3 C-1.66 3 -2.32 3 -3 3 C-3 2.34 -3 1.68 -3 1 C-2.01 0.67 -1.02 0.34 0 0 Z M11 12 C11 13.65 11 15.3 11 17 C12.32 17 13.64 17 15 17 C14.73323796 15.01508358 14.73323796 15.01508358 14 13 C13.01 12.67 12.02 12.34 11 12 Z " fill="#2D5F91" transform="translate(33,7)"/>
<path d="M0 0 C2 1.8125 2 1.8125 4 4 C4 4.99 4 5.98 4 7 C4.99 7.33 5.98 7.66 7 8 C7 7.01 7 6.02 7 5 C6.34 4.67 5.68 4.34 5 4 C5.99 4 6.98 4 8 4 C10.45489316 9.12325529 11.50341703 13.33895411 12 19 C8.7457985 16.16569547 7.4793247 14.31392226 7 10 C5.68 10.33 4.36 10.66 3 11 C2.67 10.01 2.34 9.02 2 8 C0.68 8.33 -0.64 8.66 -2 9 C-2.33 8.34 -2.66 7.68 -3 7 C-7.80176031 5.70222694 -12.35287949 5.98451363 -17.25 6.5 C-18.58804688 6.63921875 -18.58804688 6.63921875 -19.953125 6.78125 C-20.62859375 6.8534375 -21.3040625 6.925625 -22 7 C-16.36574187 4.13450821 -12.35262161 2.48747105 -6 4 C-5.67 3.34 -5.34 2.68 -5 2 C-3.35 2.66 -1.7 3.32 0 4 C0 2.68 0 1.36 0 0 Z " fill="#306D9D" transform="translate(82,21)"/>
<path d="M0 0 C0.66 0 1.32 0 2 0 C1.39981362 4.20130463 0.36743501 7.98885731 -1 12 C-1 12.66 -1 13.32 -1 14 C-1.66 14 -2.32 14 -3 14 C-3 13.34 -3 12.68 -3 12 C-5.31 12.33 -7.62 12.66 -10 13 C-10 14.32 -10 15.64 -10 17 C-11.2375 16.95875 -12.475 16.9175 -13.75 16.875 C-17.01637962 16.86341709 -19.2146947 17.1431298 -22 19 C-22.33 18.34 -22.66 17.68 -23 17 C-22.01 16.67 -21.02 16.34 -20 16 C-18.79117904 13.99983534 -18.79117904 13.99983534 -18 12 C-18.66 12 -19.32 12 -20 12 C-20 11.34 -20 10.68 -20 10 C-17.03 10.33 -14.06 10.66 -11 11 C-11 9.35 -11 7.7 -11 6 C-4.25 6.875 -4.25 6.875 -2 8 C-1.855625 7.236875 -1.71125 6.47375 -1.5625 5.6875 C-1 3 -1 3 0 0 Z " fill="#55935A" transform="translate(67,63)"/>
<path d="M0 0 C3 2 3 2 4 5 C3.2575 5.28875 2.515 5.5775 1.75 5.875 C-0.89251781 6.872196 -0.89251781 6.872196 -2.75 8.0625 C-5.8245083 9.34354513 -8.43437451 9.19131251 -11.75 9.125 C-13.50570312 9.09792969 -13.50570312 9.09792969 -15.296875 9.0703125 C-16.63492188 9.03550781 -16.63492188 9.03550781 -18 9 C-18.33 8.34 -18.66 7.68 -19 7 C-20.64363134 6.27840576 -22.31050386 5.60648579 -24 5 C-20.68542518 2.96798793 -18.62376055 2.89142574 -14.8125 3.4375 C-13.21281288 3.66000407 -11.60869247 3.85641907 -10 4 C-9.67 3.67 -9.34 3.34 -9 3 C-6.32941149 2.85884839 -3.67567762 2.95752893 -1 3 C-0.67 2.01 -0.34 1.02 0 0 Z " fill="#6E9566" transform="translate(60,80)"/>
<path d="M0 0 C3.0625 2.5 3.0625 2.5 5 5 C3.02 5.66 1.04 6.32 -1 7 C-1.66 6.34 -2.32 5.68 -3 5 C-7.60461691 3.95744523 -10.84429886 3.55546992 -15 6 C-15.33 6.99 -15.66 7.98 -16 9 C-16.66 9 -17.32 9 -18 9 C-18 8.34 -18 7.68 -18 7 C-21.62528568 6.79859524 -23.86501708 7.14223235 -27 9 C-27 8.34 -27 7.68 -27 7 C-22.32523638 4.01610833 -18.3737487 2.39929623 -12.91796875 1.39453125 C-3.43346 -0.55645731 -3.43346 -0.55645731 0 0 Z " fill="#1E3A4D" transform="translate(53,0)"/>
<path d="M0 0 C0.33 0 0.66 0 1 0 C1.268125 1.134375 1.53625 2.26875 1.8125 3.4375 C2.20256163 4.95982387 2.59882927 6.48056586 3 8 C3.20625 8.80179688 3.4125 9.60359375 3.625 10.4296875 C5.04497945 15.44560262 5.04497945 15.44560262 8.6875 19.0625 C9.450625 19.371875 10.21375 19.68125 11 20 C11 19.34 11 18.68 11 18 C11.99 18.33 12.98 18.66 14 19 C13.79375 19.515625 13.5875 20.03125 13.375 20.5625 C12.82349182 24.14730318 13.69834808 26.65289507 15 30 C16.71502233 31.44123112 16.71502233 31.44123112 19 32 C20.0725 32.37125 21.145 32.7425 22.25 33.125 C23.1575 33.41375 24.065 33.7025 25 34 C25 34.33 25 34.66 25 35 C22.69 35 20.38 35 18 35 C18 34.34 18 33.68 18 33 C17.01 33 16.02 33 15 33 C13.6484375 31.57421875 13.6484375 31.57421875 12.375 29.6875 C11.94960938 29.07261719 11.52421875 28.45773438 11.0859375 27.82421875 C10 26 10 26 9 23 C8.236875 22.4225 7.47375 21.845 6.6875 21.25 C3.45447626 18.54328245 1.29212905 16.00348181 0 12 C-0.31735571 7.97512361 -0.23808098 4.02753659 0 0 Z " fill="#2F5D37" transform="translate(5,48)"/>
<path d="M0 0 C1.41666667 0.60416667 2.83333333 1.20833333 4.25 1.8125 C6.18710167 2.66535239 6.18710167 2.66535239 8.125 1.40625 C8.681875 1.550625 9.23875 1.695 9.8125 1.84375 C13.7126925 2.79244547 17.61595428 2.80336729 21.5 1.78125 C25.55191358 1.2024052 29.20735968 2.37349514 33.125 3.40625 C32.795 4.39625 32.465 5.38625 32.125 6.40625 C31.4136792 6.36024658 30.7023584 6.31424316 29.96948242 6.2668457 C26.75125423 6.06785863 23.53215647 5.8930334 20.3125 5.71875 C19.19294922 5.64591797 18.07339844 5.57308594 16.91992188 5.49804688 C15.84677734 5.44326172 14.77363281 5.38847656 13.66796875 5.33203125 C12.1833313 5.24562378 12.1833313 5.24562378 10.66870117 5.1574707 C8.06012551 5.17580062 8.06012551 5.17580062 6.27856445 6.91088867 C5.89788818 7.40435791 5.51721191 7.89782715 5.125 8.40625 C4.34125 7.766875 3.5575 7.1275 2.75 6.46875 C0.32960719 4.42482687 0.32960719 4.42482687 -1.875 3.40625 C-1.875 2.74625 -1.875 2.08625 -1.875 1.40625 C-2.535 1.07625 -3.195 0.74625 -3.875 0.40625 C-1.875 -0.59375 -1.875 -0.59375 0 0 Z " fill="#3E93D4" transform="translate(31.875,26.59375)"/>
<path d="M0 0 C2.64 0.33 5.28 0.66 8 1 C7.67 1.66 7.34 2.32 7 3 C7.89163577 5.11683841 7.89163577 5.11683841 9 7 C8.01 7.495 8.01 7.495 7 8 C6.01 7.34 5.02 6.68 4 6 C-0.62157039 5.50834358 -2.43889691 6.17567686 -6 9 C-6.99 8.67 -7.98 8.34 -9 8 C-9 8.66 -9 9.32 -9 10 C-9.66 10 -10.32 10 -11 10 C-10.67 8.02 -10.34 6.04 -10 4 C-14.60742865 5.21044132 -14.60742865 5.21044132 -19 7 C-18.875 5.125 -18.875 5.125 -18 3 C-13.43669629 0.71834815 -9.9097668 0.86697689 -5 2 C-4.34 2.66 -3.68 3.32 -3 4 C-1.68 3.34 -0.36 2.68 1 2 C0.67 1.34 0.34 0.68 0 0 Z " fill="#33556A" transform="translate(56,2)"/>
<path d="M0 0 C0.66 0.66 1.32 1.32 2 2 C1.34 2 0.68 2 0 2 C0 2.66 0 3.32 0 4 C-0.99 4 -1.98 4 -3 4 C-2.67 4.99 -2.34 5.98 -2 7 C-1.34 7.33 -0.68 7.66 0 8 C0 8.66 0 9.32 0 10 C-6.75 9.25 -6.75 9.25 -9 7 C-9.99 7 -10.98 7 -12 7 C-11.34 6.34 -10.68 5.68 -10 5 C-10.66 3.02 -11.32 1.04 -12 -1 C-3.34285714 -2.44285714 -3.34285714 -2.44285714 0 0 Z " fill="#2877B3" transform="translate(61,19)"/>
<path d="M0 0 C0.99 0.33 1.98 0.66 3 1 C5.04896766 5.72838691 2.76427318 10.47549298 1 15 C-0.20050641 17.17806163 -1.48602919 19.01617618 -3 21 C-3.66 20.67 -4.32 20.34 -5 20 C-4.01 17.36 -3.02 14.72 -2 12 C-2.66 12 -3.32 12 -4 12 C-4 11.01 -4 10.02 -4 9 C-4.66 9 -5.32 9 -6 9 C-6 7.35 -6 5.7 -6 4 C-5.34 4 -4.68 4 -4 4 C-3.67 4.99 -3.34 5.98 -3 7 C-2.01 4.69 -1.02 2.38 0 0 Z " fill="#3C744F" transform="translate(90,47)"/>
<path d="M0 0 C2.10814567 4.21629134 2.17700355 6.39790775 2 11 C3.79156352 11.16777183 5.5832545 11.33418294 7.375 11.5 C8.37273438 11.5928125 9.37046875 11.685625 10.3984375 11.78125 C12.89703736 12.02792947 12.89703736 12.02792947 15 12 C14.67 12.99 14.34 13.98 14 15 C13.01 15 12.02 15 11 15 C10.67 15.66 10.34 16.32 10 17 C9.34 17 8.68 17 8 17 C7.67 18.65 7.34 20.3 7 22 C6.67 21.34 6.34 20.68 6 20 C4.07361988 19.24756445 4.07361988 19.24756445 2 19 C1.34 19.33 0.68 19.66 0 20 C0 13.4 0 6.8 0 0 Z " fill="#3A7546" transform="translate(4,35)"/>
<path d="M0 0 C0.33 0.66 0.66 1.32 1 2 C2.65 2 4.3 2 6 2 C6.625 3.875 6.625 3.875 7 6 C6.34 6.66 5.68 7.32 5 8 C5 7.34 5 6.68 5 6 C4.34 6.66 3.68 7.32 3 8 C4.98 8.66 6.96 9.32 9 10 C7.5 11.1875 7.5 11.1875 5 12 C2.21175762 11.27101296 -0.37665092 10.1843275 -3 9 C-3 8.34 -3 7.68 -3 7 C-3.66 7 -4.32 7 -5 7 C-5 6.34 -5 5.68 -5 5 C-5.66 5 -6.32 5 -7 5 C-7 4.34 -7 3.68 -7 3 C-3.535 2.505 -3.535 2.505 0 2 C0 1.34 0 0.68 0 0 Z " fill="#6BA966" transform="translate(35,77)"/>
<path d="M0 0 C0.66 0 1.32 0 2 0 C1.67 1.98 1.34 3.96 1 6 C1.78375 5.67 2.5675 5.34 3.375 5 C6 4 6 4 8 4 C8.66 5.65 9.32 7.3 10 9 C7.69 9.33 5.38 9.66 3 10 C3.33 11.98 3.66 13.96 4 16 C3.01 15.67 2.02 15.34 1 15 C0.5 13 0.5 13 0 11 C-3.13349732 9.95550089 -3.98968256 10.06576355 -7 11 C-6.67 10.01 -6.34 9.02 -6 8 C-4.35 8 -2.7 8 -1 8 C-1.20625 7.05125 -1.4125 6.1025 -1.625 5.125 C-1.74875 4.09375 -1.8725 3.0625 -2 2 C-1.34 1.34 -0.68 0.68 0 0 Z " fill="#39884F" transform="translate(53,59)"/>
<path d="M0 0 C2.04119788 1.61594832 4.04072937 3.2856382 6 5 C6 5.66 6 6.32 6 7 C7.32 6.34 8.64 5.68 10 5 C9.91621094 5.69867188 9.83242188 6.39734375 9.74609375 7.1171875 C9.64425781 8.02726562 9.54242188 8.93734375 9.4375 9.875 C9.33308594 10.77992187 9.22867187 11.68484375 9.12109375 12.6171875 C8.80325148 15.01653057 8.80325148 15.01653057 10 17 C8.35 17 6.7 17 5 17 C5.66 17.66 6.32 18.32 7 19 C7 19.99 7 20.98 7 22 C5.109375 21.78515625 5.109375 21.78515625 3 21 C1.953125 18.93359375 1.953125 18.93359375 1.25 16.4375 C1.00765625 15.61121094 0.7653125 14.78492187 0.515625 13.93359375 C0.34546875 13.29550781 0.1753125 12.65742187 0 12 C0.66 11.67 1.32 11.34 2 11 C2 11.66 2 12.32 2 13 C3.65 13 5.3 13 7 13 C7 11.35 7 9.7 7 8 C6.34 8 5.68 8 5 8 C5 7.34 5 6.68 5 6 C4.38125 5.9175 3.7625 5.835 3.125 5.75 C1 5 1 5 -0.25 2.9375 C-0.62125 1.9784375 -0.62125 1.9784375 -1 1 C-0.67 0.67 -0.34 0.34 0 0 Z " fill="#458C5A" transform="translate(17,57)"/>
<path d="M0 0 C0.66 0 1.32 0 2 0 C2 3.63 2 7.26 2 11 C-3 13 -3 13 -7 13 C-7 12.34 -7 11.68 -7 11 C-7.66 10.67 -8.32 10.34 -9 10 C-4.56923077 4.21538462 -4.56923077 4.21538462 -1.6875 3.125 C-1.130625 3.08375 -0.57375 3.0425 0 3 C0 2.01 0 1.02 0 0 Z " fill="#1F964B" transform="translate(36,48)"/>
<path d="M0 0 C6.27 0.33 12.54 0.66 19 1 C19 2.65 19 4.3 19 6 C18.34 5.67 17.68 5.34 17 5 C14.28239892 4.92818179 11.59140612 4.90700494 8.875 4.9375 C7.74384766 4.94426758 7.74384766 4.94426758 6.58984375 4.95117188 C4.72652873 4.96296501 2.86325445 4.98090058 1 5 C0.67 3.35 0.34 1.7 0 0 Z " fill="#7FBBE5" transform="translate(39,34)"/>
<path d="M0 0 C0.66 0 1.32 0 2 0 C4 2 4 2 4.1953125 3.9453125 C4.13020833 5.96354167 4.06510417 7.98177083 4 10 C5.65 10 7.3 10 9 10 C9 10.99 9 11.98 9 13 C7.68 13 6.36 13 5 13 C5 12.34 5 11.68 5 11 C4.360625 10.87625 3.72125 10.7525 3.0625 10.625 C2.381875 10.41875 1.70125 10.2125 1 10 C0.67 9.34 0.34 8.68 0 8 C-1.65 8.66 -3.3 9.32 -5 10 C-5 8.02 -5 6.04 -5 4 C-4.0409375 3.8453125 -4.0409375 3.8453125 -3.0625 3.6875 C-2.381875 3.460625 -1.70125 3.23375 -1 3 C-0.67 2.01 -0.34 1.02 0 0 Z " fill="#2A77B5" transform="translate(38,15)"/>
<path d="M0 0 C1.05960938 0.00676758 1.05960938 0.00676758 2.140625 0.01367188 C3.88545275 0.02546125 5.630237 0.04339676 7.375 0.0625 C7.705 1.3825 8.035 2.7025 8.375 4.0625 C2.435 4.0625 -3.505 4.0625 -9.625 4.0625 C-9.625 3.0725 -9.625 2.0825 -9.625 1.0625 C-6.55966836 -0.47016582 -3.35745728 -0.04026471 0 0 Z " fill="#E0F0F6" transform="translate(49.625,40.9375)"/>
<path d="M0 0 C0.99 0.66 1.98 1.32 3 2 C3.99 2 4.98 2 6 2 C6.33 2.66 6.66 3.32 7 4 C7.99 3.67 8.98 3.34 10 3 C10 4.32 10 5.64 10 7 C5.25 8.125 5.25 8.125 3 7 C3 7.66 3 8.32 3 9 C3.66 9.33 4.32 9.66 5 10 C2.33333333 9.33333333 -0.33333333 8.66666667 -3 8 C-3 7.34 -3 6.68 -3 6 C-2.34 6 -1.68 6 -1 6 C-1.0309375 4.7934375 -1.0309375 4.7934375 -1.0625 3.5625 C-1 1 -1 1 0 0 Z " fill="#4F9E56" transform="translate(44,66)"/>
<path d="M0 0 C0.66 0 1.32 0 2 0 C2 0.66 2 1.32 2 2 C2.62044189 1.96970703 3.24088379 1.93941406 3.88012695 1.90820312 C6.69088218 1.77138831 9.50168985 1.63568164 12.3125 1.5 C13.77719727 1.42845703 13.77719727 1.42845703 15.27148438 1.35546875 C16.20927734 1.31035156 17.14707031 1.26523437 18.11328125 1.21875 C18.97735596 1.17685547 19.84143066 1.13496094 20.73168945 1.09179688 C22.48662304 1.02077599 24.24362992 1 26 1 C26 1.99 26 2.98 26 4 C18.08 4 10.16 4 2 4 C2.33 4.99 2.66 5.98 3 7 C2.34 7.66 1.68 8.32 1 9 C0.08941469 5.92677456 -0.08886184 3.19902639 0 0 Z " fill="#329453" transform="translate(37,46)"/>
<path d="M0 0 C0.598125 0.804375 1.19625 1.60875 1.8125 2.4375 C3.80947276 5.22327984 3.80947276 5.22327984 7 6 C7 6.66 7 7.32 7 8 C7.66 8 8.32 8 9 8 C9 9.65 9 11.3 9 13 C8.01 13.33 7.02 13.66 6 14 C5.34 13.67 4.68 13.34 4 13 C4.33 12.34 4.66 11.68 5 11 C5 10.67 5 10.34 5 10 C3.576875 9.62875 3.576875 9.62875 2.125 9.25 C-1 8 -1 8 -2.4375 6.0625 C-3 4 -3 4 -2 1 C-1.34 0.67 -0.68 0.34 0 0 Z " fill="#2A8042" transform="translate(15,57)"/>
<path d="M0 0 C0.75 1.625 0.75 1.625 1 4 C-0.625 7.25 -0.625 7.25 -3 10 C-5.625 10.3125 -5.625 10.3125 -8 10 C-8.99 10.495 -8.99 10.495 -10 11 C-9.39873418 5.58860759 -9.39873418 5.58860759 -7.6875 3.0625 C-6 2 -6 2 -3.8125 2.3125 C-3.214375 2.539375 -2.61625 2.76625 -2 3 C-1.34 2.01 -0.68 1.02 0 0 Z " fill="#30653E" transform="translate(84,61)"/>
<path d="M0 0 C0.66 0 1.32 0 2 0 C3 3 3 3 2.4375 5.0625 C0.41381358 7.79007734 -1.78821942 8.1621442 -5 9 C-5 8.34 -5 7.68 -5 7 C-6.65 6.67 -8.3 6.34 -10 6 C-9.01 4.35 -8.02 2.7 -7 1 C-4.69 1.33 -2.38 1.66 0 2 C0 1.34 0 0.68 0 0 Z M-7 3 C-7 3.66 -7 4.32 -7 5 C-5.35 5 -3.7 5 -2 5 C-2 4.34 -2 3.68 -2 3 C-3.65 3 -5.3 3 -7 3 Z " fill="#296A9D" transform="translate(31,19)"/>
<path d="M0 0 C0.66 0 1.32 0 2 0 C1.39981362 4.20130463 0.36743501 7.98885731 -1 12 C-1 12.66 -1 13.32 -1 14 C-1.66 14 -2.32 14 -3 14 C-3 13.34 -3 12.68 -3 12 C-4.98 12.33 -6.96 12.66 -9 13 C-9 11.68 -9 10.36 -9 9 C-9.66 8.67 -10.32 8.34 -11 8 C-11 7.34 -11 6.68 -11 6 C-4.25 6.875 -4.25 6.875 -2 8 C-1.855625 7.236875 -1.71125 6.47375 -1.5625 5.6875 C-1 3 -1 3 0 0 Z " fill="#57A462" transform="translate(67,63)"/>
<path d="M0 0 C1.72526042 1.07421875 3.45052083 2.1484375 5.17578125 3.22265625 C4.84578125 4.21265625 4.51578125 5.20265625 4.17578125 6.22265625 C5.16578125 6.55265625 6.15578125 6.88265625 7.17578125 7.22265625 C6.84578125 8.21265625 6.51578125 9.20265625 6.17578125 10.22265625 C5.84578125 9.23265625 5.51578125 8.24265625 5.17578125 7.22265625 C4.51578125 7.22265625 3.85578125 7.22265625 3.17578125 7.22265625 C2.84578125 8.54265625 2.51578125 9.86265625 2.17578125 11.22265625 C-0.43469676 9.91741725 -0.50488298 8.86439051 -1.44921875 6.16015625 C-1.70960937 5.42667969 -1.97 4.69320313 -2.23828125 3.9375 C-2.43164062 3.37160156 -2.625 2.80570313 -2.82421875 2.22265625 C-3.48421875 2.22265625 -4.14421875 2.22265625 -4.82421875 2.22265625 C-4.82421875 1.56265625 -4.82421875 0.90265625 -4.82421875 0.22265625 C-1.82421875 -0.77734375 -1.82421875 -0.77734375 0 0 Z " fill="#2D5980" transform="translate(34.82421875,7.77734375)"/>
<path d="M0 0 C0.99 0.33 1.98 0.66 3 1 C3 1.66 3 2.32 3 3 C-0.46153846 6 -0.46153846 6 -3 6 C-3.25523438 6.67417969 -3.51046875 7.34835938 -3.7734375 8.04296875 C-5.22868805 11.55132756 -6.90947835 14.92678552 -8.625 18.3125 C-9.11226562 19.28026367 -9.11226562 19.28026367 -9.609375 20.26757812 C-10.40441956 21.84597541 -11.20195634 23.42311694 -12 25 C-12.33 25 -12.66 25 -13 25 C-12.80944433 14.90054959 -6.50663208 7.29531476 0 0 Z " fill="#183D5C" transform="translate(18,12)"/>
<path d="M0 0 C0.66 0.66 1.32 1.32 2 2 C2.99 2.33 3.98 2.66 5 3 C5 3.99 5 4.98 5 6 C1 4.66666667 -3 3.33333333 -7 2 C-7.226875 2.61875 -7.45375 3.2375 -7.6875 3.875 C-9.37929835 6.61410209 -10.99244161 7.05024472 -14 8 C-13.67 6.68 -13.34 5.36 -13 4 C-12.01 4 -11.02 4 -10 4 C-10 3.34 -10 2.68 -10 2 C-6.60535554 -0.08901197 -3.95158471 -0.34361606 0 0 Z " fill="#205377" transform="translate(71,19)"/>
<path d="M0 0 C1.99954746 -0.04254356 4.00041636 -0.04080783 6 0 C7 1 7 1 7.09765625 3.28515625 C7.08605469 4.20167969 7.07445312 5.11820312 7.0625 6.0625 C7.05347656 6.98160156 7.04445313 7.90070313 7.03515625 8.84765625 C7.02355469 9.55792969 7.01195312 10.26820312 7 11 C6.34 11 5.68 11 5 11 C5 11.66 5 12.32 5 13 C5.804375 13.12375 6.60875 13.2475 7.4375 13.375 C8.283125 13.58125 9.12875 13.7875 10 14 C10.33 14.66 10.66 15.32 11 16 C8.69 15.34 6.38 14.68 4 14 C4 10.37 4 6.74 4 3 C3.01 3 2.02 3 1 3 C0.67 2.01 0.34 1.02 0 0 Z " fill="#2A6A36" transform="translate(36,61)"/>
<path d="M0 0 C0.7425 0.495 1.485 0.99 2.25 1.5 C5.06318188 3.31923475 5.06318188 3.31923475 9 3 C10.7511573 1.5833253 10.7511573 1.5833253 12 0 C15.465 1.485 15.465 1.485 19 3 C18.67 3.66 18.34 4.32 18 5 C16.88625 4.79375 15.7725 4.5875 14.625 4.375 C13.42875 4.25125 12.2325 4.1275 11 4 C10.34 4.66 9.68 5.32 9 6 C6.66666667 5.66666667 4.33333333 5.33333333 2 5 C1.34 5.66 0.68 6.32 0 7 C-0.66 6.34 -1.32 5.68 -2 5 C-1.46428571 1.46428571 -1.46428571 1.46428571 0 0 Z " fill="#204265" transform="translate(55,11)"/>
<path d="M0 0 C1.65 0.33 3.3 0.66 5 1 C5 1.66 5 2.32 5 3 C5.66 3 6.32 3 7 3 C7 3.66 7 4.32 7 5 C6.030625 5.28875 5.06125 5.5775 4.0625 5.875 C0.89335797 6.64214682 0.89335797 6.64214682 0 9 C-2.375 9.1875 -2.375 9.1875 -5 9 C-5.66 8.01 -6.32 7.02 -7 6 C-5.02 5.67 -3.04 5.34 -1 5 C-1.33 4.01 -1.66 3.02 -2 2 C-1.34 2 -0.68 2 0 2 C0 1.34 0 0.68 0 0 Z " fill="#498547" transform="translate(59,74)"/>
<path d="M0 0 C0.66 0.33 1.32 0.66 2 1 C2.7166207 3.31847874 3.38242027 5.65319703 4 8 C4.33 8.66 4.66 9.32 5 10 C5.0396713 11.66619446 5.04384447 13.33391013 5 15 C4.01 15.33 3.02 15.66 2 16 C1.34 15.67 0.68 15.34 0 15 C0.020625 13.80375 0.04125 12.6075 0.0625 11.375 C0.07514354 7.81584403 -0.40078348 4.50969676 -1 1 C-0.67 0.67 -0.34 0.34 0 0 Z " fill="#7DA194" transform="translate(80,32)"/>
<path d="M0 0 C1.65 0 3.3 0 5 0 C6.125 6.75 6.125 6.75 5 9 C3.35 9 1.7 9 0 9 C0 6.03 0 3.06 0 0 Z " fill="#8EB0C0" transform="translate(13,37)"/>
<path d="M0 0 C2.64 0 5.28 0 8 0 C8.33 1.32 8.66 2.64 9 4 C8.01 4.33 7.02 4.66 6 5 C5.01 6.485 5.01 6.485 4 8 C4 7.34 4 6.68 4 6 C2.02 6 0.04 6 -2 6 C-1.34 4.02 -0.68 2.04 0 0 Z " fill="#5598CF" transform="translate(8,30)"/>
<path d="M0 0 C2.9858613 2.30337872 3.89232474 3.5334072 4.75 7.25 C4.87375 8.61125 4.87375 8.61125 5 10 C4.34 10 3.68 10 3 10 C1.02 6.535 1.02 6.535 -1 3 C-1.33 3.99 -1.66 4.98 -2 6 C-2.66 6 -3.32 6 -4 6 C-4.33 5.01 -4.66 4.02 -5 3 C-7.00016466 1.79117904 -7.00016466 1.79117904 -9 1 C-9 0.67 -9 0.34 -9 0 C-5.65398876 -0.83650281 -3.23093432 -1.35490794 0 0 Z " fill="#1A4167" transform="translate(84,19)"/>
<path d="M0 0 C0.66 0.33 1.32 0.66 2 1 C1.67 1.66 1.34 2.32 1 3 C-0.2065625 3.1546875 -0.2065625 3.1546875 -1.4375 3.3125 C-2.283125 3.539375 -3.12875 3.76625 -4 4 C-5.23290201 6.45704762 -5.23290201 6.45704762 -6 9 C-6.99 9.495 -6.99 9.495 -8 10 C-8 8.02 -8 6.04 -8 4 C-9.98 4 -11.96 4 -14 4 C-14 3.34 -14 2.68 -14 2 C-13.07316406 1.93941406 -12.14632812 1.87882812 -11.19140625 1.81640625 C-9.39509766 1.69072266 -9.39509766 1.69072266 -7.5625 1.5625 C-5.77005859 1.44068359 -5.77005859 1.44068359 -3.94140625 1.31640625 C-1.11429756 1.32343886 -1.11429756 1.32343886 0 0 Z " fill="#63A2C9" transform="translate(66,31)"/>
<path d="M0 0 C0.33 0.99 0.66 1.98 1 3 C5.27343092 3.36629408 7.48812804 2.40814077 11 0 C11.66 0.99 12.32 1.98 13 3 C11.25132925 5.19305243 10.4193869 5.94290357 7.58984375 6.328125 C6.71457031 6.30234375 5.83929687 6.2765625 4.9375 6.25 C4.05964844 6.23453125 3.18179687 6.2190625 2.27734375 6.203125 C0 6 0 6 -2 5 C-1.34 3.35 -0.68 1.7 0 0 Z " fill="#3486C0" transform="translate(11,25)"/>
<path d="M0 0 C2.84780619 2.23206431 3.84997666 3.54992999 5 7 C2.11562221 5.70700306 0.12780579 4.34058637 -2 2 C-2.99 2.33 -3.98 2.66 -5 3 C-5.83333333 4.91666667 -5.83333333 4.91666667 -6 7 C-5.67 7.66 -5.34 8.32 -5 9 C-6.32 8.34 -7.64 7.68 -9 7 C-9 3 -9 3 -7.875 1.25 C-5.09817222 -0.60121852 -3.26458633 -0.46636948 0 0 Z " fill="#142D49" transform="translate(60,7)"/>
<path d="M0 0 C1.19625 0.165 2.3925 0.33 3.625 0.5 C6.24484408 0.83789508 8.59316858 0.98859291 11.25 0.9375 C14.10474984 1.00238068 15.59532873 1.5202023 18 3 C17.67 3.66 17.34 4.32 17 5 C15.08364783 5.05423638 13.16685075 5.09289963 11.25 5.125 C9.64898437 5.15980469 9.64898437 5.15980469 8.015625 5.1953125 C5.03902932 5.00252781 3.42102537 4.7082936 1 3 C0.67 2.01 0.34 1.02 0 0 Z " fill="#3067A1" transform="translate(56,15)"/>
<path d="M0 0 C2.0625 1.625 2.0625 1.625 4 4 C3.75 7.25 3.75 7.25 3 10 C0.69 9.67 -1.62 9.34 -4 9 C-4.33 7.68 -4.66 6.36 -5 5 C-3.35 5 -1.7 5 0 5 C-0.2784375 4.0409375 -0.2784375 4.0409375 -0.5625 3.0625 C-0.706875 2.381875 -0.85125 1.70125 -1 1 C-0.67 0.67 -0.34 0.34 0 0 Z " fill="#357142" transform="translate(26,68)"/>
<path d="M0 0 C-0.33 0.99 -0.66 1.98 -1 3 C-1.66 3 -2.32 3 -3 3 C-3.33 3.66 -3.66 4.32 -4 5 C-4.99 5 -5.98 5 -7 5 C-7.66 6.32 -8.32 7.64 -9 9 C-9.66 9 -10.32 9 -11 9 C-11.3125 6.1875 -11.3125 6.1875 -11 3 C-7.49047762 -0.09663739 -4.5654558 -0.31852017 0 0 Z " fill="#468D51" transform="translate(82,70)"/>
<path d="M0 0 C1.65 0.33 3.3 0.66 5 1 C7.14285714 8.42857143 7.14285714 8.42857143 8 12 C6.0625 11.375 6.0625 11.375 4 10 C3.25 6.875 3.25 6.875 3 4 C2.34 4 1.68 4 1 4 C1 4.66 1 5.32 1 6 C0.34 6 -0.32 6 -1 6 C-0.67 4.02 -0.34 2.04 0 0 Z " fill="#21693C" transform="translate(14,49)"/>
<path d="M0 0 C6.0546875 -0.1953125 6.0546875 -0.1953125 8 0 C9.89353366 1.89353366 11.4198632 3.84526801 13 6 C10.03 5.505 10.03 5.505 7 5 C7 5.99 7 6.98 7 8 C6.01 8.33 5.02 8.66 4 9 C3 6 3 6 3 2 C2.01 1.34 1.02 0.68 0 0 Z " fill="#253B49" transform="translate(60,4)"/>
<path d="M0 0 C0.66 0 1.32 0 2 0 C2.66 2.64 3.32 5.28 4 8 C2.35 8.66 0.7 9.32 -1 10 C-2 9 -2 9 -2.1875 5.5625 C-2 2 -2 2 0 0 Z " fill="#A5C2C9" transform="translate(7,37)"/>
<path d="M0 0 C0.33 0 0.66 0 1 0 C1.268125 1.11375 1.53625 2.2275 1.8125 3.375 C3.0396543 8.3012741 4.50869129 13.14827565 6 18 C3.64239519 17.05695808 2.25168318 16.35140671 0.7578125 14.265625 C-0.22168404 11.33723329 -0.19198593 8.83135255 -0.125 5.75 C-0.10695313 4.67234375 -0.08890625 3.5946875 -0.0703125 2.484375 C-0.04710937 1.66453125 -0.02390625 0.8446875 0 0 Z " fill="#18552A" transform="translate(5,48)"/>
<path d="M0 0 C2.10814567 4.21629134 2.17700355 6.39790775 2 11 C2.969375 11.12375 3.93875 11.2475 4.9375 11.375 C5.948125 11.58125 6.95875 11.7875 8 12 C8.33 12.66 8.66 13.32 9 14 C5.86650268 15.04449911 5.01031744 14.93423645 2 14 C1.67 15.98 1.34 17.96 1 20 C0.67 20 0.34 20 0 20 C0 13.4 0 6.8 0 0 Z " fill="#638473" transform="translate(4,35)"/>
<path d="M0 0 C2 3 2 3 1.75 5.125 C1 7 1 7 -1 8 C-3.03144641 7.06553465 -5.03533587 6.06775224 -7 5 C-5.49336217 1.98672434 -2.96833589 1.38943382 0 0 Z " fill="#2282C2" transform="translate(38,22)"/>
<path d="M0 0 C1.98 0 3.96 0 6 0 C6.33 0.99 6.66 1.98 7 3 C6.34 3 5.68 3 5 3 C5.66 4.65 6.32 6.3 7 8 C5.68 8.33 4.36 8.66 3 9 C3 8.34 3 7.68 3 7 C2.01 6.67 1.02 6.34 0 6 C0 4.02 0 2.04 0 0 Z " fill="#2A6639" transform="translate(30,65)"/>
<path d="M0 0 C0.66 0 1.32 0 2 0 C4.76773209 3.32127851 6.07523578 4.98431692 5.75 9.375 C5.5025 10.24125 5.255 11.1075 5 12 C4.01 12 3.02 12 2 12 C1.34 8.04 0.68 4.08 0 0 Z " fill="#92BCC9" transform="translate(88,34)"/>
<path d="M0 0 C3 2 3 2 4 5 C-1.76081841 6.2982126 -7.08739655 7.25706972 -13 7 C-13 6.67 -13 6.34 -13 6 C-11.02 6 -9.04 6 -7 6 C-7 5.34 -7 4.68 -7 4 C-5.35 4 -3.7 4 -2 4 C-1.34 2.68 -0.68 1.36 0 0 Z " fill="#7EAF79" transform="translate(60,80)"/>
<path d="M0 0 C0.33 0.66 0.66 1.32 1 2 C-0.80288943 6.60738411 -2.88550128 9.25700085 -7 12 C-7.66 12 -8.32 12 -9 12 C-9 11.34 -9 10.68 -9 10 C-8.34 9.67 -7.68 9.34 -7 9 C-6.67 8.01 -6.34 7.02 -6 6 C-5.34 6 -4.68 6 -4 6 C-3.67 4.35 -3.34 2.7 -3 1 C-2.01 0.67 -1.02 0.34 0 0 Z " fill="#70A574" transform="translate(77,73)"/>
<path d="M0 0 C0.33 0 0.66 0 1 0 C1.74521523 7.15406617 0.34707015 11.30223306 -4 17 C-4.66 16.67 -5.32 16.34 -6 16 C-5.34 14.02 -4.68 12.04 -4 10 C-3.34 10 -2.68 10 -2 10 C-1.34 6.7 -0.68 3.4 0 0 Z " fill="#285737" transform="translate(91,51)"/>
<path d="M0 0 C-0.33 1.32 -0.66 2.64 -1 4 C-1.66 4 -2.32 4 -3 4 C-3 3.34 -3 2.68 -3 2 C-5.97 4.475 -5.97 4.475 -9 7 C-9.625 5.1875 -9.625 5.1875 -10 3 C-8 0 -8 0 -5.5625 -0.75 C-3 -1 -3 -1 0 0 Z " fill="#265687" transform="translate(21,21)"/>
<path d="M0 0 C0.99 0.33 1.98 0.66 3 1 C2.01 1.33 1.02 1.66 0 2 C0.99 2.66 1.98 3.32 3 4 C3 4.66 3 5.32 3 6 C-1.33333333 6 -5.66666667 6 -10 6 C-8.6993321 3.3986642 -7.69919978 3.35811992 -5 2.4375 C-2.26066983 1.60962158 -2.26066983 1.60962158 0 0 Z " fill="#2B4E67" transform="translate(30,6)"/>
<path d="M0 0 C0.66 0.33 1.32 0.66 2 1 C1.12360894 2.49076829 0.22303672 3.96733869 -0.6875 5.4375 C-1.43580078 6.67306641 -1.43580078 6.67306641 -2.19921875 7.93359375 C-4.38099448 10.43719323 -5.75480334 10.69593558 -9 11 C-8.34 9.68 -7.68 8.36 -7 7 C-6.34 7 -5.68 7 -5 7 C-5 6.34 -5 5.68 -5 5 C-3.625 3.375 -3.625 3.375 -2 2 C-1.34 2 -0.68 2 0 2 C0 1.34 0 0.68 0 0 Z " fill="#426F4B" transform="translate(84,68)"/>
<path d="M0 0 C3.76107556 3.14951856 4.6211545 5.42885116 5.25 10.25 C5.39953125 11.32765625 5.5490625 12.4053125 5.703125 13.515625 C5.80109375 14.33546875 5.8990625 15.1553125 6 16 C1.53571429 11.75 1.53571429 11.75 1 8 C1.66 8 2.32 8 3 8 C2.39816251 5.97954558 1.72693904 3.97888961 1 2 C0.34 1.67 -0.32 1.34 -1 1 C-0.67 0.67 -0.34 0.34 0 0 Z " fill="#537A8F" transform="translate(88,24)"/>
<path d="M0 0 C2 0 2 0 3.625 1.125 C5.55651159 3.75887944 5.21205536 5.81916956 5 9 C2.69 8.34 0.38 7.68 -2 7 C-1.34 6.01 -0.68 5.02 0 4 C0 3.67 0 3.34 0 3 C0 2.01 0 1.02 0 0 Z " fill="#559459" transform="translate(35,68)"/>
<path d="M0 0 C1.5 1.3125 1.5 1.3125 3 3 C3 3.99 3 4.98 3 6 C0.36 6 -2.28 6 -5 6 C-4.67 4.35 -4.34 2.7 -4 1 C-3.01 1 -2.02 1 -1 1 C-0.67 0.67 -0.34 0.34 0 0 Z " fill="#2F964C" transform="translate(48,61)"/>
<path d="M0 0 C2.35981813 0.93578995 4.69631264 1.93347808 7 3 C7 3.99 7 4.98 7 6 C7.66 6.33 8.32 6.66 9 7 C8.34 7.66 7.68 8.32 7 9 C6.21625 8.360625 5.4325 7.72125 4.625 7.0625 C2.20460719 5.01857687 2.20460719 5.01857687 0 4 C0 3.34 0 2.68 0 2 C-0.66 1.67 -1.32 1.34 -2 1 C-1.34 0.67 -0.68 0.34 0 0 Z " fill="#3F8BC2" transform="translate(30,26)"/>
<path d="M0 0 C1.32 0 2.64 0 4 0 C4.33 1.98 4.66 3.96 5 6 C2 8 2 8 -0.6875 7.625 C-1.450625 7.41875 -2.21375 7.2125 -3 7 C-2.67 5.02 -2.34 3.04 -2 1 C-1.67 1 -1.34 1 -1 1 C-1 2.65 -1 4.3 -1 6 C0.32 6 1.64 6 3 6 C1.515 3.03 1.515 3.03 0 0 Z " fill="#13416E" transform="translate(45,18)"/>
<path d="M0 0 C5.94 2.475 5.94 2.475 12 5 C8 7 8 7 5.89453125 6.64453125 C5.20746094 6.36996094 4.52039062 6.09539062 3.8125 5.8125 C3.11769531 5.55082031 2.42289063 5.28914063 1.70703125 5.01953125 C0 4 0 4 -1 1 C-0.67 0.67 -0.34 0.34 0 0 Z " fill="#526E4E" transform="translate(32,82)"/>
<path d="M0 0 C1.32 0 2.64 0 4 0 C3.67 1.98 3.34 3.96 3 6 C1.35 6.33 -0.3 6.66 -2 7 C-2.125 4.625 -2.125 4.625 -2 2 C-1.34 1.34 -0.68 0.68 0 0 Z " fill="#2D934C" transform="translate(34,59)"/>
<path d="M0 0 C0.66 0 1.32 0 2 0 C2.95024979 3.69541586 2.95024979 6.30458414 2 10 C1.01 10 0.02 10 -1 10 C-2.46726798 6.18510326 -1.43336419 3.70988378 0 0 Z " fill="#275F36" transform="translate(80,47)"/>
<path d="M0 0 C2.46800047 1.15173355 4.04783565 2.04783565 6 4 C5.34 4 4.68 4 4 4 C4 4.66 4 5.32 4 6 C3.01 6 2.02 6 1 6 C0.67 6.66 0.34 7.32 0 8 C-1 7 -1 7 -1.125 4 C-1 1 -1 1 0 0 Z " fill="#3170B4" transform="translate(57,17)"/>
<path d="M0 0 C-0.33 0.66 -0.66 1.32 -1 2 C-1.99 2.33 -2.98 2.66 -4 3 C-4.66 2.67 -5.32 2.34 -6 2 C-5.67 3.98 -5.34 5.96 -5 8 C-6.65 8 -8.3 8 -10 8 C-9.9375 5.1875 -9.9375 5.1875 -9 2 C-2.88888889 -1.44444444 -2.88888889 -1.44444444 0 0 Z " fill="#306284" transform="translate(28,11)"/>
<path d="M0 0 C0.66 0 1.32 0 2 0 C2 1.32 2 2.64 2 4 C2.99 4 3.98 4 5 4 C5.33 3.34 5.66 2.68 6 2 C7.2077558 5.62326739 6.54311128 6.64146369 5 10 C4.67 9.34 4.34 8.68 4 8 C3.34 8 2.68 8 2 8 C2 7.01 2 6.02 2 5 C1.34 5 0.68 5 0 5 C0 3.35 0 1.7 0 0 Z " fill="#2E7E46" transform="translate(84,51)"/>
<path d="M0 0 C0.99 0.66 1.98 1.32 3 2 C2.67 2.66 2.34 3.32 2 4 C-5.92 3.67 -13.84 3.34 -22 3 C-22 2.67 -22 2.34 -22 2 C-21.36908447 1.97494385 -20.73816895 1.9498877 -20.08813477 1.92407227 C-17.24603175 1.80845863 -14.40428917 1.68557684 -11.5625 1.5625 C-10.56927734 1.52318359 -9.57605469 1.48386719 -8.55273438 1.44335938 C-7.60849609 1.40146484 -6.66425781 1.35957031 -5.69140625 1.31640625 C-4.81685791 1.27974854 -3.94230957 1.24309082 -3.04125977 1.20532227 C-1.0072598 1.21818934 -1.0072598 1.21818934 0 0 Z " fill="#57A46B" transform="translate(61,46)"/>
<path d="M0 0 C4.25599681 -0.42559968 7.01309754 -0.41830608 10.375 2.25 C13.76290631 5.79923518 13.76290631 5.79923518 14 9 C13.34 9 12.68 9 12 9 C11.278125 8.05125 10.55625 7.1025 9.8125 6.125 C6.96439636 2.50944329 4.4426171 1.87110139 0 1 C0 0.67 0 0.34 0 0 Z " fill="#2A5571" transform="translate(25,30)"/>
<path d="M0 0 C0.66 0.66 1.32 1.32 2 2 C1.34 2 0.68 2 0 2 C0.061875 3.1446875 0.061875 3.1446875 0.125 4.3125 C0 7 0 7 -2 10 C-1.01 10 -0.02 10 1 10 C1 10.66 1 11.32 1 12 C-0.65 11.67 -2.3 11.34 -4 11 C-4.33 10.01 -4.66 9.02 -5 8 C-4.34 8 -3.68 8 -3 8 C-2.87625 7.4225 -2.7525 6.845 -2.625 6.25 C-1.99351176 3.97664233 -1.11141809 2.0746471 0 0 Z " fill="#43884A" transform="translate(69,65)"/>
<path d="M0 0 C0.66 0 1.32 0 2 0 C1.49396008 2.16874252 1.00016187 3.99967627 0 6 C-2 7 -4 8 -6 9 C-6.33 9.66 -6.66 10.32 -7 11 C-7.66 10.67 -8.32 10.34 -9 10 C-4.56923077 4.21538462 -4.56923077 4.21538462 -1.6875 3.125 C-1.130625 3.08375 -0.57375 3.0425 0 3 C0 2.01 0 1.02 0 0 Z " fill="#1C6840" transform="translate(36,48)"/>
<path d="M0 0 C5.03985731 0.44469329 7.37634988 2.71343362 11 6 C9.3125 6.6875 9.3125 6.6875 7 7 C3.30194812 5.32707177 1.44626119 3.81287042 0 0 Z " fill="#286C3A" transform="translate(60,49)"/>
<path d="M0 0 C0 0.66 0 1.32 0 2 C0.66 2.33 1.32 2.66 2 3 C-3.94 3 -9.88 3 -16 3 C-16 2.67 -16 2.34 -16 2 C-13.89627599 1.66388432 -11.79200343 1.33120054 -9.6875 1 C-8.51574219 0.814375 -7.34398437 0.62875 -6.13671875 0.4375 C-3 0 -3 0 0 0 Z " fill="#EDFCF8" transform="translate(56,42)"/>
<path d="M0 0 C0.66 0 1.32 0 2 0 C2.33 2.97 2.66 5.94 3 9 C2.34 7.68 1.68 6.36 1 5 C-0.65 5 -2.3 5 -4 5 C-3.67 4.01 -3.34 3.02 -3 2 C-2.01 2 -1.02 2 0 2 C0 1.34 0 0.68 0 0 Z " fill="#5988A4" transform="translate(17,32)"/>
<path d="M0 0 C3.33537489 1.11179163 4.63707344 2.47411298 7 5 C6.67 5.66 6.34 6.32 6 7 C2.85554549 7.84985257 0.29227921 8 -3 8 C-2.360625 7.38125 -1.72125 6.7625 -1.0625 6.125 C1.03883584 4.17402388 1.03883584 4.17402388 2 2 C1.34 2 0.68 2 0 2 C0 1.34 0 0.68 0 0 Z " fill="#63A668" transform="translate(47,73)"/>
<path d="M0 0 C0.66 0 1.32 0 2 0 C1.49287967 3.71888239 0.88391785 6.73454239 -1 10 C-2.65 10 -4.3 10 -6 10 C-6 9.01 -6 8.02 -6 7 C-4.68 7.33 -3.36 7.66 -2 8 C-1.855625 7.236875 -1.71125 6.47375 -1.5625 5.6875 C-1 3 -1 3 0 0 Z " fill="#4DAA64" transform="translate(67,63)"/>
<path d="M0 0 C1.32 0 2.64 0 4 0 C4 0.66 4 1.32 4 2 C4.66 2 5.32 2 6 2 C6 3.65 6 5.3 6 7 C5.01 7.33 4.02 7.66 3 8 C2.34 7.67 1.68 7.34 1 7 C1.33 6.34 1.66 5.68 2 5 C1.09166275 2.93330603 1.09166275 2.93330603 0 1 C0 0.67 0 0.34 0 0 Z " fill="#2B6737" transform="translate(18,63)"/>
<path d="M0 0 C0.66 0 1.32 0 2 0 C4 2 4 2 4.125 4.625 C4.08375 5.40875 4.0425 6.1925 4 7 C2.329375 6.7525 2.329375 6.7525 0.625 6.5 C-2.72032033 5.9544542 -2.72032033 5.9544542 -5 6 C-5 5.34 -5 4.68 -5 4 C-4.0409375 3.8453125 -4.0409375 3.8453125 -3.0625 3.6875 C-2.381875 3.460625 -1.70125 3.23375 -1 3 C-0.67 2.01 -0.34 1.02 0 0 Z " fill="#4184B7" transform="translate(38,15)"/>
<path d="M0 0 C-3.59462331 2.25998595 -6.56595675 2.20868087 -10.75 2.125 C-11.92046875 2.10695313 -13.0909375 2.08890625 -14.296875 2.0703125 C-15.63492188 2.03550781 -15.63492188 2.03550781 -17 2 C-17 1.67 -17 1.34 -17 1 C-15.10630916 0.63455089 -13.20991218 0.28310825 -11.3125 -0.0625 C-10.25675781 -0.25972656 -9.20101562 -0.45695312 -8.11328125 -0.66015625 C-5.08840784 -0.99034946 -2.92019489 -0.77474558 0 0 Z " fill="#788F73" transform="translate(59,87)"/>
<path d="M0 0 C1.32 0 2.64 0 4 0 C3 3 3 3 1.3125 4.25 C-1.73227042 5.23749311 -3.91911384 4.7002014 -7 4 C-4.35261084 2.5393715 -3.10551666 2 0 2 C0 1.34 0 0.68 0 0 Z " fill="#5E925A" transform="translate(64,83)"/>
<path d="M0 0 C2.0625 0.1875 2.0625 0.1875 4 1 C4.33 1.99 4.66 2.98 5 4 C3.02 4.66 1.04 5.32 -1 6 C-1.625 4.125 -1.625 4.125 -2 2 C-1.34 1.34 -0.68 0.68 0 0 Z " fill="#5E8D57" transform="translate(49,79)"/>
<path d="M0 0 C0.66 0 1.32 0 2 0 C1.01 3.63 0.02 7.26 -1 11 C-1.66 10.67 -2.32 10.34 -3 10 C-5.09821215 10.39938767 -5.09821215 10.39938767 -7 11 C-6.67 10.01 -6.34 9.02 -6 8 C-4.35 8 -2.7 8 -1 8 C-1.20625 7.05125 -1.4125 6.1025 -1.625 5.125 C-1.74875 4.09375 -1.8725 3.0625 -2 2 C-1.34 1.34 -0.68 0.68 0 0 Z " fill="#3A7D47" transform="translate(53,59)"/>
<path d="M0 0 C2.64 0.33 5.28 0.66 8 1 C8 1.99 8 2.98 8 4 C7.01 4 6.02 4 5 4 C5 3.34 5 2.68 5 2 C3.35 2 1.7 2 0 2 C-0.33 2.99 -0.66 3.98 -1 5 C-1.66 4.67 -2.32 4.34 -3 4 C-2.01 2.68 -1.02 1.36 0 0 Z " fill="#164372" transform="translate(24,20)"/>
<path d="M0 0 C2.875 -0.125 2.875 -0.125 6 0 C6.66 0.66 7.32 1.32 8 2 C8.99 2.33 9.98 2.66 11 3 C11 3.99 11 4.98 11 6 C8.0625 5.1875 8.0625 5.1875 5 4 C4.67 3.01 4.34 2.02 4 1 C1.98491642 0.26676204 1.98491642 0.26676204 0 0 Z " fill="#174070" transform="translate(65,19)"/>
<path d="M0 0 C2.04119788 1.61594832 4.04072937 3.2856382 6 5 C6 5.66 6 6.32 6 7 C7.32 6.34 8.64 5.68 10 5 C10 5.99 10 6.98 10 8 C8.35 8 6.7 8 5 8 C5 7.34 5 6.68 5 6 C4.38125 5.9175 3.7625 5.835 3.125 5.75 C1 5 1 5 -0.25 2.9375 C-0.62125 1.9784375 -0.62125 1.9784375 -1 1 C-0.67 0.67 -0.34 0.34 0 0 Z " fill="#4AA769" transform="translate(17,57)"/>
<path d="M0 0 C0.99 0.495 0.99 0.495 2 1 C2 1.66 2 2.32 2 3 C2.99 3.33 3.98 3.66 5 4 C5.33 6.31 5.66 8.62 6 11 C5.34 11 4.68 11 4 11 C3.32591692 9.73308493 2.66099503 8.46129251 2 7.1875 C1.62875 6.47980469 1.2575 5.77210937 0.875 5.04296875 C0 3 0 3 0 0 Z " fill="#335C78" transform="translate(75,30)"/>
<path d="M0 0 C0.66 0 1.32 0 2 0 C2.33 0.66 2.66 1.32 3 2 C4.32 2 5.64 2 7 2 C7.33 3.32 7.66 4.64 8 6 C5.125 6.1875 5.125 6.1875 2 6 C0 3 0 3 0 0 Z " fill="#306389" transform="translate(83,26)"/>
<path d="M0 0 C2.97 1.98 2.97 1.98 6 4 C5.67 4.66 5.34 5.32 5 6 C4.01 5.67 3.02 5.34 2 5 C1.34 5.66 0.68 6.32 0 7 C-0.66 6.34 -1.32 5.68 -2 5 C-1.46428571 1.46428571 -1.46428571 1.46428571 0 0 Z " fill="#1D3C5C" transform="translate(55,11)"/>
<path d="M0 0 C-0.33 0.99 -0.66 1.98 -1 3 C-1.99 3 -2.98 3 -4 3 C-4.33 3.99 -4.66 4.98 -5 6 C-6.32 5.01 -7.64 4.02 -9 3 C-6.38997624 -0.48003168 -4.1689578 -0.27793052 0 0 Z " fill="#113F55" transform="translate(46,6)"/>
<path d="M0 0 C0.99 0 1.98 0 3 0 C3 1.98 3 3.96 3 6 C3.66 6.33 4.32 6.66 5 7 C2.625 6.75 2.625 6.75 0 6 C-1.3125 3.9375 -1.3125 3.9375 -2 2 C-1.34 2 -0.68 2 0 2 C0 1.34 0 0.68 0 0 Z " fill="#529057" transform="translate(30,72)"/>
<path d="M0 0 C0 0.99 0 1.98 0 3 C-1.32 3 -2.64 3 -4 3 C-4 3.66 -4 4.32 -4 5 C-4.99 5.33 -5.98 5.66 -7 6 C-7 4.35 -7 2.7 -7 1 C-2.25 0 -2.25 0 0 0 Z " fill="#29984F" transform="translate(78,58)"/>
<path d="M0 0 C2.31 0 4.62 0 7 0 C7 0.66 7 1.32 7 2 C6.01 2.495 6.01 2.495 5 3 C4.67 3.66 4.34 4.32 4 5 C3.01 5 2.02 5 1 5 C0.67 3.35 0.34 1.7 0 0 Z " fill="#28679A" transform="translate(49,18)"/>
<path d="M0 0 C0.99 0 1.98 0 3 0 C2.67 0.99 2.34 1.98 2 3 C2.66 3.33 3.32 3.66 4 4 C4 4.66 4 5.32 4 6 C2.02 6 0.04 6 -2 6 C-1.34 4.02 -0.68 2.04 0 0 Z " fill="#67A9D5" transform="translate(8,30)"/>
<path d="M0 0 C2.25 -0.25 2.25 -0.25 5 0 C7.79035429 2.2477854 8.85910005 3.57730016 10 7 C7.08719163 5.69425831 5.19705507 4.2925792 3 2 C2.01 1.34 1.02 0.68 0 0 Z " fill="#0B2232" transform="translate(55,7)"/>
<path d="M0 0 C0.33 0.99 0.66 1.98 1 3 C-0.98 4.32 -2.96 5.64 -5 7 C-5 6.34 -5 5.68 -5 5 C-5.66 5 -6.32 5 -7 5 C-7 4.34 -7 3.68 -7 3 C-3.535 2.505 -3.535 2.505 0 2 C0 1.34 0 0.68 0 0 Z " fill="#5F9A64" transform="translate(35,77)"/>
<path d="M0 0 C0.33 1.32 0.66 2.64 1 4 C-3.75 5.125 -3.75 5.125 -6 4 C-6 3.34 -6 2.68 -6 2 C-4.02 1.34 -2.04 0.68 0 0 Z " fill="#47954E" transform="translate(53,69)"/>
<path d="M0 0 C1.5625 1.1875 1.5625 1.1875 3 3 C2.6875 5.6875 2.6875 5.6875 2 8 C1.01 8 0.02 8 -1 8 C-0.67 5.36 -0.34 2.72 0 0 Z " fill="#ABCFD6" transform="translate(15,38)"/>
<path d="M0 0 C0.66 0.33 1.32 0.66 2 1 C2.59355614 3.64860427 2.74209269 6.29197322 3 9 C2.34 9 1.68 9 1 9 C0.63877119 7.68942607 0.28619689 6.37646376 -0.0625 5.0625 C-0.35833984 3.96615234 -0.35833984 3.96615234 -0.66015625 2.84765625 C-0.77230469 2.23792969 -0.88445312 1.62820312 -1 1 C-0.67 0.67 -0.34 0.34 0 0 Z " fill="#79B8D2" transform="translate(80,32)"/>
<path d="M0 0 C0.33 0.99 0.66 1.98 1 3 C0.67 3.66 0.34 4.32 0 5 C-0.66 5 -1.32 5 -2 5 C-2.66 5.66 -3.32 6.32 -4 7 C-5.32 6.34 -6.64 5.68 -8 5 C-5.35261084 3.5393715 -4.10551666 3 -1 3 C-0.67 2.01 -0.34 1.02 0 0 Z " fill="#2A6BA0" transform="translate(21,22)"/>
<path d="M0 0 C2.97 0 5.94 0 9 0 C8.01 0.33 7.02 0.66 6 1 C6 1.66 6 2.32 6 3 C4.02 3.33 2.04 3.66 0 4 C0 2.68 0 1.36 0 0 Z " fill="#334553" transform="translate(44,0)"/>
<path d="M0 0 C2.46800047 1.15173355 4.04783565 2.04783565 6 4 C6 4.99 6 5.98 6 7 C4.125 6.875 4.125 6.875 2 6 C0.75 2.9375 0.75 2.9375 0 0 Z " fill="#4D925F" transform="translate(18,72)"/>
<path d="M0 0 C0.33 0.99 0.66 1.98 1 3 C3.01508358 3.73323796 3.01508358 3.73323796 5 4 C4.34 4.66 3.68 5.32 3 6 C0.375 5.625 0.375 5.625 -2 5 C-1.34 3.35 -0.68 1.7 0 0 Z " fill="#3A7DB7" transform="translate(11,25)"/>
<path d="M0 0 C0.99 0.66 1.98 1.32 3 2 C2.34 2 1.68 2 1 2 C1.33 3.65 1.66 5.3 2 7 C0.02 5.68 -1.96 4.36 -4 3 C-2.68 2.01 -1.36 1.02 0 0 Z " fill="#387848" transform="translate(29,63)"/>
<path d="M0 0 C1.67542976 0.28604898 3.34385343 0.61781233 5 1 C5 2.32 5 3.64 5 5 C4.34 5 3.68 5 3 5 C2.67 5.66 2.34 6.32 2 7 C2 5.68 2 4.36 2 3 C1.01 2.34 0.02 1.68 -1 1 C-0.67 0.67 -0.34 0.34 0 0 Z " fill="#205F2D" transform="translate(56,58)"/>
<path d="M0 0 C2.625 -0.1875 2.625 -0.1875 5 0 C4.34 0.556875 3.68 1.11375 3 1.6875 C0.74507789 3.84062308 0.74507789 3.84062308 0.75 6.75 C0.8325 7.4925 0.915 8.235 1 9 C-1 6 -1 6 -2 3 C-1.34 2.01 -0.68 1.02 0 0 Z " fill="#278041" transform="translate(51,58)"/>
<path d="M0 0 C0.99 0.495 0.99 0.495 2 1 C2 1.66 2 2.32 2 3 C4.475 3.99 4.475 3.99 7 5 C7 5.99 7 6.98 7 8 C3.83282717 6.41641358 2.26731682 5.54736301 0.6875 2.3125 C0.460625 1.549375 0.23375 0.78625 0 0 Z " fill="#279149" transform="translate(60,50)"/>
<path d="M0 0 C0.66 0.33 1.32 0.66 2 1 C2 1.33 2 1.66 2 2 C2.66 2.33 3.32 2.66 4 3 C4 3.66 4 4.32 4 5 C1.69 5 -0.62 5 -3 5 C-1.125 1.125 -1.125 1.125 0 0 Z " fill="#2E83C1" transform="translate(50,23)"/>
<path d="M0 0 C0.66 0.33 1.32 0.66 2 1 C2 1.99 2 2.98 2 4 C1.01 4.495 1.01 4.495 0 5 C-0.99 4.67 -1.98 4.34 -3 4 C-3 4.66 -3 5.32 -3 6 C-3.66 6 -4.32 6 -5 6 C-4.34 4.68 -3.68 3.36 -3 2 C-2.34 2 -1.68 2 -1 2 C-0.67 1.34 -0.34 0.68 0 0 Z " fill="#345B7A" transform="translate(50,6)"/>
<path d="M0 0 C2.72426311 2.35277269 3.8141763 4.62496331 5 8 C2.00675737 6.9024777 1.15389099 6.32317108 -0.25 3.375 C-0.4975 2.59125 -0.745 1.8075 -1 1 C-0.67 0.67 -0.34 0.34 0 0 Z " fill="#144620" transform="translate(6,58)"/>
<path d="M0 0 C0.66 0 1.32 0 2 0 C2.66 0.66 3.32 1.32 4 2 C4.66 2 5.32 2 6 2 C6 1.34 6 0.68 6 0 C6.66 0.33 7.32 0.66 8 1 C7.67 1.99 7.34 2.98 7 4 C5.35 4 3.7 4 2 4 C1.34 2.68 0.68 1.36 0 0 Z " fill="#3E7D50" transform="translate(20,57)"/>
<path d="M0 0 C0.763125 0.20625 1.52625 0.4125 2.3125 0.625 C1.6525 1.945 0.9925 3.265 0.3125 4.625 C-0.3475 3.965 -1.0075 3.305 -1.6875 2.625 C-2.6775 2.955 -3.6675 3.285 -4.6875 3.625 C-5.0175 2.965 -5.3475 2.305 -5.6875 1.625 C-2.6875 -0.375 -2.6875 -0.375 0 0 Z " fill="#3077AC" transform="translate(76.6875,28.375)"/>
<path d="M0 0 C1.98 0 3.96 0 6 0 C5.67 0.99 5.34 1.98 5 3 C4.34 3 3.68 3 3 3 C2.67 3.66 2.34 4.32 2 5 C2 4.01 2 3.02 2 2 C1.01 2.33 0.02 2.66 -1 3 C-0.67 2.01 -0.34 1.02 0 0 Z " fill="#548E60" transform="translate(76,70)"/>
<path d="M0 0 C1.485 0.99 1.485 0.99 3 2 C2.67 3.32 2.34 4.64 2 6 C1.01 6 0.02 6 -1 6 C-1.042721 4.33388095 -1.04063832 2.66617115 -1 1 C-0.67 0.67 -0.34 0.34 0 0 Z " fill="#429756" transform="translate(44,66)"/>
<path d="M0 0 C0 0.33 0 0.66 0 1 C-1.175625 1.185625 -1.175625 1.185625 -2.375 1.375 C-5.14057822 1.79117993 -5.14057822 1.79117993 -7 4 C-7.66 3.67 -8.32 3.34 -9 3 C-9 2.01 -9 1.02 -9 0 C-5.67465243 -1.10844919 -3.37817425 -0.84454356 0 0 Z " fill="#1B4765" transform="translate(31,13)"/>
</svg>
